<svg width="180" height="17" viewBox="0 0 180 17" fill="none" xmlns="http://www.w3.org/2000/svg">
<g opacity="0.62" filter="url(#filter0_f_209_811)">
<path d="M106.259 2.7959C105.828 3.22855 105.46 3.73283 105.152 4.30762H107.098C107.024 4.4636 106.952 4.62499 106.886 4.79395C106.525 5.76166 106.344 6.88474 106.344 8.16211C106.344 9.45223 106.545 10.5746 106.945 11.5293C107.345 12.4841 107.887 13.2259 108.571 13.7549C109.255 14.2708 110.022 14.5293 110.874 14.5293C111.764 14.5292 112.539 14.2587 113.197 13.7168C113.868 13.1749 114.384 12.4196 114.745 11.4521C115.106 10.4844 115.287 9.36135 115.287 8.08398C115.287 6.78111 115.087 5.65856 114.687 4.7168C114.63 4.57549 114.567 4.43932 114.504 4.30762H116.591L116.663 4.4502C117.139 5.455 117.377 6.64731 117.377 8.02637C117.377 9.47129 117.099 10.7356 116.545 11.8193C116.003 12.9031 115.235 13.749 114.242 14.3555C113.261 14.9489 112.119 15.245 110.816 15.2451C109.487 15.2451 108.332 14.9678 107.351 14.4131C106.371 13.8454 105.609 13.0392 105.067 11.9941C104.525 10.9361 104.255 9.67779 104.255 8.21973C104.255 6.77458 104.532 5.50964 105.087 4.42578C105.407 3.80079 105.798 3.25778 106.259 2.7959ZM168.242 3.58691C168.085 3.81362 167.94 4.05412 167.805 4.30762H169.675C169.224 5.31837 168.998 6.57696 168.998 8.08398C168.998 10.0709 169.391 11.6388 170.178 12.7871C170.965 13.9225 172.043 14.4912 173.411 14.4912C174.198 14.4912 174.901 14.3103 175.52 13.9492C176.152 13.575 176.676 13.0584 177.089 12.4004C177.514 11.7425 177.791 10.9748 177.921 10.0977H178.695V12.3613C178.708 12.9807 178.72 13.5105 178.733 13.9492C178.746 14.3876 178.759 14.7874 178.772 15.1484H177.998C177.946 14.723 177.868 14.4265 177.765 14.2588C177.662 14.0912 177.52 14.0069 177.339 14.0068C177.133 14.0069 176.907 14.0715 176.663 14.2002C176.418 14.3163 176.127 14.4583 175.792 14.626C175.469 14.7936 175.082 14.9357 174.63 15.0518C174.179 15.1807 173.65 15.2451 173.044 15.2451C171.805 15.2451 170.727 14.9612 169.811 14.3936C168.895 13.8129 168.179 13.0002 167.663 11.9551C167.16 10.9099 166.908 9.69041 166.908 8.29688C166.908 6.8649 167.172 5.60052 167.701 4.50391C167.863 4.17665 168.044 3.87166 168.242 3.58691ZM60.4537 12.1025L62.9723 4.30762H63.7701L60.2555 15.1104H59.5592L55.5826 4.30762H57.6227L60.4537 12.1025ZM90.5084 11.084H90.8375V4.30762H91.611V15.1104H90.6432L84.0094 4.30762H86.3512L90.5084 11.084ZM7.39514 7.7168H14.0533V4.30762H16.0084V12.5557C16.0085 13.02 16.0595 13.3684 16.1627 13.6006C16.2659 13.8198 16.4791 13.9741 16.8014 14.0645C17.1239 14.1418 17.6211 14.1939 18.2916 14.2197V14.9746C17.9692 14.9488 17.5239 14.9356 16.9567 14.9355C16.4019 14.9226 15.7564 14.917 15.0211 14.917C14.389 14.917 13.8145 14.9227 13.2985 14.9355C12.7828 14.9355 12.3698 14.9488 12.0602 14.9746V14.2197C12.6405 14.1939 13.0733 14.1418 13.3571 14.0645C13.6403 13.9741 13.8273 13.8196 13.9176 13.6006C14.0079 13.3684 14.0533 13.0199 14.0533 12.5557V8.45215H7.39514V12.5557C7.39517 13.0071 7.44059 13.3489 7.53088 13.5811C7.62123 13.8132 7.8086 13.9741 8.09241 14.0645C8.38911 14.1418 8.82772 14.1939 9.40784 14.2197V14.9746C9.09828 14.9488 8.68528 14.9356 8.16956 14.9355C7.65352 14.9226 7.07238 14.917 6.42737 14.917C5.69213 14.917 5.04653 14.9227 4.49182 14.9355C3.93756 14.9356 3.49885 14.9488 3.17639 14.9746V14.2197C3.84695 14.1939 4.33754 14.1418 4.64709 14.0645C4.96929 13.9741 5.18259 13.8198 5.28577 13.6006C5.38892 13.3684 5.44003 13.0199 5.44006 12.5557V4.30762H7.39514V7.7168ZM35.778 8.90137L37.9342 4.89062C38.0466 4.68503 38.1398 4.48991 38.2184 4.30762H39.1237L36.2115 9.69141V12.3809C36.2115 12.8841 36.2692 13.2654 36.3854 13.5234C36.5145 13.7813 36.7729 13.9556 37.1598 14.0459C37.5469 14.1362 38.128 14.1939 38.902 14.2197V14.9746C38.515 14.9488 37.9981 14.9356 37.3531 14.9355C36.7082 14.9226 36.0048 14.917 35.2438 14.917C34.4439 14.917 33.7209 14.9226 33.0758 14.9355C32.431 14.9355 31.9206 14.9488 31.5465 14.9746V14.2197C32.3332 14.1939 32.9146 14.1362 33.2887 14.0459C33.6754 13.9556 33.9274 13.7812 34.0436 13.5234C34.1726 13.2654 34.2369 12.884 34.2369 12.3809V10.0557L30.7975 4.30762H33.0406L35.778 8.90137ZM54.5846 12.3232C54.5846 12.8134 54.6433 13.1939 54.7594 13.4648C54.8884 13.7228 55.1204 13.9103 55.4557 14.0264C55.8041 14.1295 56.3142 14.1939 56.985 14.2197V14.9746C56.727 14.9488 56.3521 14.9356 55.8619 14.9355C55.3847 14.9227 54.8553 14.917 54.275 14.917C53.6817 14.917 53.1458 14.9227 52.6686 14.9355C52.1916 14.9356 51.8174 14.9488 51.5465 14.9746V14.2197C52.1656 14.1939 52.6371 14.1296 52.9596 14.0264C53.2947 13.9102 53.5203 13.7227 53.6364 13.4648C53.7524 13.1939 53.8111 12.8134 53.8112 12.3232V4.30762H54.5846V12.3232ZM66.7399 12.5557C66.7399 13.02 66.7919 13.3684 66.8951 13.6006C67.0113 13.8196 67.2303 13.9742 67.5524 14.0645C67.875 14.1418 68.3662 14.1939 69.024 14.2197V14.9746C68.6757 14.9488 68.2233 14.9356 67.6686 14.9355C67.114 14.9227 66.4946 14.917 65.8112 14.917C65.1403 14.917 64.5393 14.9226 64.0104 14.9355C63.4948 14.9356 63.0883 14.9488 62.7916 14.9746V14.2197C63.372 14.1939 63.8047 14.1362 64.0885 14.0459C64.372 13.9556 64.5588 13.8002 64.649 13.5811C64.7393 13.3489 64.7848 13.007 64.7848 12.5557V4.30762H66.7399V12.5557ZM82.7662 12.3232C82.7663 12.8003 82.8241 13.1744 82.9401 13.4453C83.0562 13.7033 83.2824 13.8907 83.6178 14.0068C83.9662 14.1229 84.483 14.1939 85.1666 14.2197V14.9746C84.9086 14.9488 84.5337 14.9356 84.0436 14.9355C83.5534 14.9226 83.0242 14.917 82.4567 14.917C81.8633 14.917 81.3275 14.9227 80.8502 14.9355C80.373 14.9355 79.9981 14.9488 79.7272 14.9746V14.2197C80.3592 14.1939 80.8373 14.1229 81.1598 14.0068C81.4951 13.8907 81.7148 13.7033 81.818 13.4453C81.934 13.1744 81.9918 12.8003 81.9918 12.3232V4.30762H82.7662V12.3232ZM134.564 12.3809C134.564 12.8841 134.629 13.2654 134.758 13.5234C134.888 13.7811 135.139 13.9557 135.513 14.0459C135.9 14.1361 136.481 14.1939 137.255 14.2197V14.9746C136.855 14.9488 136.325 14.9356 135.668 14.9355C135.023 14.9226 134.332 14.917 133.596 14.917C132.81 14.917 132.093 14.9227 131.448 14.9355C130.803 14.9356 130.294 14.9488 129.92 14.9746V14.2197C130.693 14.1939 131.268 14.1362 131.642 14.0459C132.029 13.9556 132.287 13.7811 132.416 13.5234C132.545 13.2654 132.61 12.884 132.61 12.3809V4.30762H134.564V12.3809ZM153.796 12.5557C153.796 13.02 153.847 13.3684 153.95 13.6006C154.066 13.8198 154.286 13.9741 154.608 14.0645C154.931 14.1418 155.421 14.1939 156.079 14.2197V14.9746C155.73 14.9617 155.272 14.9484 154.705 14.9355C154.137 14.9227 153.511 14.917 152.828 14.917C152.105 14.917 151.466 14.9227 150.912 14.9355C150.357 14.9484 149.911 14.9617 149.576 14.9746V14.2197C150.233 14.1939 150.724 14.1418 151.047 14.0645C151.369 13.9742 151.582 13.8197 151.685 13.6006C151.788 13.3684 151.84 13.0199 151.84 12.5557V4.30762H153.796V12.5557ZM178.695 6.14844H177.921C177.802 5.45967 177.604 4.84631 177.329 4.30762H178.695V6.14844ZM128.924 4.30762C128.796 4.71562 128.675 5.19364 128.564 5.74219H127.791C127.87 5.24941 127.933 4.77102 127.983 4.30762H128.924ZM139.182 4.30762C139.237 4.7758 139.303 5.25416 139.383 5.74219H138.59C138.484 5.20018 138.366 4.73078 138.238 4.33398L138.228 4.30762H139.182ZM32.5338 3.44238L32.65 3.65234C32.6065 3.57973 32.5671 3.50976 32.5328 3.44238L32.4449 3.24805C32.47 3.31015 32.4995 3.37504 32.5338 3.44238ZM175.502 2.29688C175.656 2.38719 175.805 2.48681 175.947 2.5957C175.876 2.54117 175.802 2.48933 175.728 2.43945L175.502 2.29688ZM106.501 2.56934C106.571 2.50599 106.643 2.44269 106.716 2.38281L106.729 2.37305C106.651 2.43615 106.575 2.50234 106.501 2.56934ZM178.733 2.25879C178.739 2.0735 178.745 1.89524 178.751 1.72461H177.872C177.871 1.72625 177.87 1.72787 177.87 1.72949C177.921 1.56304 177.966 1.3529 177.998 1.09766H178.772L178.733 2.25879ZM173.178 1C173.759 1.00003 174.269 1.06533 174.708 1.19434C175.146 1.3104 175.527 1.4582 175.849 1.63867C175.904 1.6673 175.958 1.69712 176.01 1.72461H170.265C170.151 1.78875 170.038 1.85702 169.927 1.92969C170.869 1.31056 171.953 1.00004 173.178 1ZM110.836 1C112.151 1.00012 113.3 1.28413 114.28 1.85156C114.203 1.80727 114.125 1.76544 114.047 1.72461H110.987C110.918 1.72098 110.847 1.71681 110.777 1.7168C110.709 1.7168 110.642 1.72144 110.575 1.72461H107.719C108.635 1.24258 109.674 1 110.836 1ZM9.40784 1.72461H3.17639V1.27148C3.49885 1.28438 3.93756 1.29766 4.49182 1.31055C5.05942 1.32344 5.70503 1.3291 6.42737 1.3291C7.07238 1.3291 7.65352 1.32345 8.16956 1.31055C8.68528 1.29765 9.09828 1.28438 9.40784 1.27148V1.72461ZM18.2916 1.72461H12.0602V1.27148C12.3698 1.28438 12.7828 1.29765 13.2985 1.31055C13.8145 1.32344 14.389 1.3291 15.0211 1.3291C15.7564 1.3291 16.4019 1.32345 16.9567 1.31055C17.5239 1.29765 17.9692 1.28438 18.2916 1.27148V1.72461ZM34.2184 1.72461H27.7731V1.27148C28.2245 1.28438 28.6961 1.29765 29.1862 1.31055C29.6762 1.32343 30.1735 1.3291 30.6764 1.3291C31.4759 1.3291 32.1663 1.32344 32.7467 1.31055C33.3272 1.29765 33.8185 1.28438 34.2184 1.27148V1.72461ZM41.9987 1.72461H36.5406V1.27148C36.8373 1.28438 37.2503 1.29765 37.7789 1.31055C38.3079 1.32344 38.9411 1.3291 39.6764 1.3291C40.0501 1.32909 40.4114 1.32343 40.7594 1.31055C41.1206 1.29765 41.5343 1.28438 41.9987 1.27148V1.72461ZM56.6852 1.72461H51.5465V1.27148C51.8303 1.28438 52.2111 1.29765 52.6881 1.31055C53.1654 1.32344 53.7012 1.3291 54.2946 1.3291C54.7459 1.3291 55.1655 1.32344 55.5524 1.31055C55.952 1.29765 56.2751 1.28438 56.5201 1.27148L56.6852 1.72461ZM69.024 1.72461H63.8063L63.9528 1.27148C64.3782 1.29727 64.7525 1.3162 65.0748 1.3291H66.0817C66.6749 1.3291 67.2364 1.32344 67.7653 1.31055C68.2941 1.29765 68.7144 1.28438 69.024 1.27148V1.72461ZM84.7672 1.72461H79.7272V1.27148C80.011 1.28438 80.3925 1.29765 80.8698 1.31055C81.347 1.32344 81.8829 1.3291 82.4762 1.3291C82.8888 1.3291 83.2696 1.32344 83.6178 1.31055C83.966 1.29765 84.2567 1.28438 84.4889 1.27148L84.7672 1.72461ZM93.8951 1.72461H88.4567V1.27148C88.7275 1.28438 89.1018 1.29765 89.5787 1.31055C90.069 1.32344 90.599 1.3291 91.1666 1.3291C91.7599 1.3291 92.2959 1.32344 92.7731 1.31055C93.2501 1.29765 93.6243 1.28438 93.8951 1.27148V1.72461ZM139.011 1.72461H128.153C128.156 1.57328 128.158 1.42225 128.158 1.27148C128.687 1.28438 129.255 1.29765 129.861 1.31055C130.48 1.32344 131.113 1.3291 131.758 1.3291H135.319C135.964 1.3291 136.603 1.32344 137.235 1.31055C137.88 1.29765 138.468 1.28438 138.997 1.27148C138.999 1.42169 139.007 1.57267 139.011 1.72461ZM156.079 1.72461H149.576V1.27148C149.911 1.28438 150.357 1.29765 150.912 1.31055C151.466 1.32344 152.105 1.3291 152.828 1.3291C153.511 1.3291 154.137 1.32344 154.705 1.31055C155.272 1.29765 155.73 1.28438 156.079 1.27148V1.72461Z" fill="white"/>
<path d="M104.088 2.79004C103.655 3.22388 103.285 3.73046 102.976 4.30762H104.922C104.848 4.46363 104.775 4.62494 104.71 4.79395C104.349 5.76166 104.168 6.88474 104.168 8.16211C104.168 9.45223 104.369 10.5746 104.769 11.5293C105.169 12.4841 105.711 13.2259 106.395 13.7549C107.078 14.271 107.846 14.5293 108.697 14.5293C109.588 14.5293 110.362 14.2587 111.021 13.7168C111.691 13.1749 112.207 12.4198 112.568 11.4521C112.93 10.4844 113.11 9.3614 113.11 8.08398C113.11 6.78105 112.911 5.65859 112.511 4.7168C112.453 4.57543 112.391 4.43936 112.327 4.30762H114.415L114.486 4.4502C114.963 5.45502 115.2 6.64724 115.2 8.02637C115.2 9.47136 114.923 10.7356 114.368 11.8193C113.826 12.9032 113.059 13.749 112.065 14.3555C111.085 14.949 109.943 15.2451 108.64 15.2451C107.311 15.2451 106.155 14.9679 105.175 14.4131C104.194 13.8453 103.433 13.0392 102.891 11.9941C102.349 10.9361 102.078 9.67779 102.078 8.21973C102.078 6.77458 102.355 5.50964 102.91 4.42578C103.231 3.79839 103.624 3.25307 104.088 2.79004ZM166.065 3.58691C165.909 3.81367 165.763 4.05407 165.629 4.30762H167.499C167.048 5.31837 166.821 6.57696 166.821 8.08398C166.821 10.0709 167.215 11.6388 168.002 12.7871C168.789 13.9226 169.867 14.4912 171.234 14.4912C172.021 14.4912 172.725 14.3103 173.344 13.9492C173.976 13.575 174.499 13.0585 174.912 12.4004C175.338 11.7425 175.615 10.9748 175.744 10.0977H176.519V12.3613C176.531 12.9807 176.544 13.5105 176.557 13.9492C176.57 14.3876 176.583 14.7874 176.596 15.1484H175.821C175.77 14.7229 175.692 14.4265 175.589 14.2588C175.486 14.091 175.344 14.0068 175.163 14.0068C174.957 14.0069 174.731 14.0714 174.486 14.2002C174.241 14.3163 173.951 14.4583 173.615 14.626C173.293 14.7937 172.906 14.9356 172.454 15.0518C172.003 15.1808 171.473 15.2451 170.867 15.2451C169.628 15.2451 168.551 14.9613 167.635 14.3936C166.719 13.8129 166.002 13.0002 165.486 11.9551C164.983 10.9099 164.731 9.69041 164.731 8.29688C164.731 6.8649 164.996 5.60052 165.524 4.50391C165.686 4.1766 165.868 3.8717 166.065 3.58691ZM58.2773 12.1025L60.7959 4.30762H61.5938L58.0791 15.1104H57.3828L53.4062 4.30762H55.4463L58.2773 12.1025ZM88.332 11.084H88.6611V4.30762H89.4346V15.1104H88.4668L81.833 4.30762H84.1748L88.332 11.084ZM5.21875 7.7168H11.877V4.30762H13.832V12.5557C13.8321 13.02 13.8831 13.3684 13.9863 13.6006C14.0895 13.8198 14.3027 13.9741 14.625 14.0645C14.9475 14.1419 15.4445 14.1939 16.1152 14.2197V14.9746C15.7927 14.9488 15.3477 14.9355 14.7803 14.9355C14.2254 14.9226 13.5802 14.917 12.8447 14.917C12.2125 14.917 11.6382 14.9226 11.1221 14.9355C10.6062 14.9355 10.1934 14.9488 9.88379 14.9746V14.2197C10.4643 14.1939 10.8968 14.1419 11.1807 14.0645C11.4641 13.9741 11.6509 13.8197 11.7412 13.6006C11.8315 13.3684 11.8769 13.02 11.877 12.5557V8.45215H5.21875V12.5557C5.21878 13.0071 5.2642 13.3489 5.35449 13.5811C5.44482 13.8133 5.63215 13.9741 5.91602 14.0645C6.21272 14.1418 6.65111 14.1939 7.23145 14.2197V14.9746C6.92182 14.9488 6.50906 14.9355 5.99316 14.9355C5.47704 14.9226 4.89614 14.917 4.25098 14.917C3.51558 14.917 2.87022 14.9226 2.31543 14.9355C1.76096 14.9356 1.32249 14.9488 1 14.9746V14.2197C1.67075 14.1939 2.16109 14.1419 2.4707 14.0645C2.79308 13.9741 3.00616 13.8198 3.10938 13.6006C3.21257 13.3684 3.26364 13.02 3.26367 12.5557V4.30762H5.21875V7.7168ZM33.6016 8.90137L35.7578 4.89062C35.8702 4.68498 35.9634 4.48996 36.042 4.30762H36.9473L34.0352 9.69141V12.3809C34.0352 12.8841 34.0929 13.2654 34.209 13.5234C34.3381 13.7814 34.5964 13.9556 34.9834 14.0459C35.3705 14.1362 35.9514 14.1939 36.7256 14.2197V14.9746C36.3385 14.9488 35.8219 14.9355 35.1768 14.9355C34.5317 14.9226 33.8286 14.917 33.0674 14.917C32.2674 14.917 31.5446 14.9226 30.8994 14.9355C30.2544 14.9355 29.7443 14.9488 29.3701 14.9746V14.2197C30.157 14.1939 30.7381 14.1362 31.1123 14.0459C31.4992 13.9556 31.751 13.7813 31.8672 13.5234C31.9962 13.2654 32.0605 12.8841 32.0605 12.3809V10.0557L28.6211 4.30762H30.8643L33.6016 8.90137ZM52.4082 12.3232C52.4082 12.8134 52.4669 13.1939 52.583 13.4648C52.712 13.7229 52.9439 13.9102 53.2793 14.0264C53.6277 14.1296 54.1376 14.1939 54.8086 14.2197V14.9746C54.5505 14.9488 54.1759 14.9355 53.6855 14.9355C53.2083 14.9227 52.6791 14.917 52.0986 14.917C51.5052 14.917 50.9695 14.9226 50.4922 14.9355C50.015 14.9356 49.641 14.9488 49.3701 14.9746V14.2197C49.9894 14.1939 50.4607 14.1296 50.7832 14.0264C51.1185 13.9102 51.3439 13.7228 51.46 13.4648C51.5761 13.1939 51.6347 12.8134 51.6348 12.3232V4.30762H52.4082V12.3232ZM64.5635 12.5557C64.5635 13.02 64.6156 13.3684 64.7188 13.6006C64.8349 13.8197 65.0538 13.9742 65.376 14.0645C65.6986 14.1419 66.1896 14.1939 66.8477 14.2197V14.9746C66.4993 14.9488 66.047 14.9355 65.4922 14.9355C64.9375 14.9227 64.3184 14.917 63.6348 14.917C62.9638 14.917 62.363 14.9226 61.834 14.9355C61.3182 14.9356 60.9119 14.9488 60.6152 14.9746V14.2197C61.1958 14.1939 61.6283 14.1362 61.9121 14.0459C62.1958 13.9556 62.3823 13.8003 62.4727 13.5811C62.563 13.3489 62.6084 13.0071 62.6084 12.5557V4.30762H64.5635V12.5557ZM80.5898 12.3232C80.5899 12.8003 80.6477 13.1744 80.7637 13.4453C80.8798 13.7034 81.106 13.8907 81.4414 14.0068C81.7898 14.123 82.3064 14.1939 82.9902 14.2197V14.9746C82.7322 14.9488 82.3575 14.9355 81.8672 14.9355C81.3769 14.9226 80.8479 14.917 80.2803 14.917C79.6868 14.917 79.1512 14.9226 78.6738 14.9355C78.1964 14.9355 77.8217 14.9488 77.5508 14.9746V14.2197C78.183 14.1939 78.6608 14.123 78.9834 14.0068C79.3189 13.8907 79.5384 13.7034 79.6416 13.4453C79.7576 13.1744 79.8154 12.8004 79.8154 12.3232V4.30762H80.5898V12.3232ZM132.388 12.3809C132.388 12.8841 132.453 13.2654 132.582 13.5234C132.711 13.7812 132.963 13.9556 133.337 14.0459C133.724 14.1361 134.304 14.1939 135.078 14.2197V14.9746C134.678 14.9488 134.149 14.9355 133.491 14.9355C132.846 14.9226 132.155 14.917 131.42 14.917C130.633 14.917 129.917 14.9226 129.271 14.9355C128.627 14.9356 128.117 14.9488 127.743 14.9746V14.2197C128.517 14.1939 129.092 14.1362 129.466 14.0459C129.853 13.9556 130.11 13.7812 130.239 13.5234C130.368 13.2654 130.434 12.8841 130.434 12.3809V4.30762H132.388V12.3809ZM151.619 12.5557C151.619 13.02 151.67 13.3684 151.773 13.6006C151.89 13.8199 152.109 13.9741 152.432 14.0645C152.754 14.1419 153.245 14.1939 153.902 14.2197V14.9746C153.554 14.9617 153.096 14.9484 152.528 14.9355C151.961 14.9226 151.335 14.917 150.651 14.917C149.929 14.917 149.29 14.9226 148.735 14.9355C148.181 14.9485 147.735 14.9617 147.399 14.9746V14.2197C148.057 14.1939 148.548 14.1418 148.87 14.0645C149.193 13.9742 149.406 13.8198 149.509 13.6006C149.612 13.3684 149.664 13.02 149.664 12.5557V4.30762H151.619V12.5557ZM176.519 6.14844H175.744C175.626 5.45961 175.428 4.84634 175.152 4.30762H176.519V6.14844ZM126.748 4.30762C126.62 4.71564 126.499 5.19361 126.388 5.74219H125.614C125.694 5.24939 125.757 4.77104 125.807 4.30762H126.748ZM137.006 4.30762C137.061 4.77582 137.127 5.25415 137.207 5.74219H136.414C136.308 5.20013 136.19 4.73081 136.062 4.33398L136.052 4.30762H137.006ZM30.3574 3.44238L30.4736 3.65234C30.43 3.57968 30.3907 3.50981 30.3564 3.44238L30.2686 3.24805C30.2936 3.31019 30.3231 3.37499 30.3574 3.44238ZM173.325 2.29688C173.48 2.38723 173.629 2.48675 173.771 2.5957C173.699 2.54111 173.626 2.48938 173.552 2.43945L173.325 2.29688ZM104.324 2.56934C104.395 2.50593 104.466 2.44274 104.54 2.38281L104.553 2.37305C104.475 2.43621 104.399 2.50228 104.324 2.56934ZM176.557 2.25879C176.562 2.0735 176.569 1.89524 176.574 1.72461H175.695C175.695 1.72628 175.694 1.72783 175.693 1.72949C175.745 1.56302 175.789 1.35296 175.821 1.09766H176.596L176.557 2.25879ZM171.002 1C171.583 1 172.093 1.0653 172.531 1.19434C172.97 1.31041 173.35 1.45815 173.673 1.63867C173.728 1.66734 173.781 1.69707 173.834 1.72461H168.089C167.974 1.7888 167.862 1.85695 167.751 1.92969C168.693 1.31045 169.776 1.00004 171.002 1ZM108.659 1C109.975 1.00006 111.123 1.28407 112.104 1.85156C112.027 1.80721 111.949 1.76549 111.87 1.72461H108.811C108.741 1.72098 108.671 1.7168 108.601 1.7168C108.533 1.7168 108.465 1.72144 108.398 1.72461H105.543C106.459 1.24248 107.497 1 108.659 1ZM7.23145 1.72461H1V1.27148C1.32249 1.28438 1.76096 1.29765 2.31543 1.31055C2.88312 1.32345 3.52848 1.3291 4.25098 1.3291C4.89614 1.3291 5.47704 1.32345 5.99316 1.31055C6.50906 1.29765 6.92182 1.28438 7.23145 1.27148V1.72461ZM16.1152 1.72461H9.88379V1.27148C10.1934 1.28438 10.6062 1.29765 11.1221 1.31055C11.6382 1.32345 12.2125 1.3291 12.8447 1.3291C13.5802 1.3291 14.2254 1.32345 14.7803 1.31055C15.3477 1.29765 15.7927 1.28438 16.1152 1.27148V1.72461ZM32.042 1.72461H25.5967V1.27148C26.0482 1.28438 26.5195 1.29765 27.0098 1.31055C27.4999 1.32344 27.9969 1.3291 28.5 1.3291C29.2997 1.3291 29.9898 1.32344 30.5703 1.31055C31.151 1.29764 31.642 1.28439 32.042 1.27148V1.72461ZM39.8223 1.72461H34.3643V1.27148C34.661 1.28438 35.0737 1.29765 35.6025 1.31055C36.1316 1.32345 36.7645 1.3291 37.5 1.3291C37.8739 1.3291 38.2349 1.32343 38.583 1.31055C38.9443 1.29764 39.3577 1.28439 39.8223 1.27148V1.72461ZM54.5088 1.72461H49.3701V1.27148C49.6539 1.28438 50.0345 1.29765 50.5117 1.31055C50.9891 1.32345 51.5247 1.3291 52.1182 1.3291C52.5696 1.3291 52.989 1.32344 53.376 1.31055C53.7758 1.29765 54.0986 1.28438 54.3438 1.27148L54.5088 1.72461ZM66.8477 1.72461H61.6299L61.7764 1.27148C62.2019 1.29728 62.576 1.3162 62.8984 1.3291H63.9053C64.4987 1.3291 65.0599 1.32344 65.5889 1.31055C66.1179 1.29764 66.538 1.28439 66.8477 1.27148V1.72461ZM82.5908 1.72461H77.5508V1.27148C77.8347 1.28439 78.2159 1.29764 78.6934 1.31055C79.1707 1.32344 79.7064 1.3291 80.2998 1.3291C80.7126 1.3291 81.0931 1.32345 81.4414 1.31055C81.7898 1.29764 82.0802 1.28439 82.3125 1.27148L82.5908 1.72461ZM91.7188 1.72461H86.2803V1.27148C86.5512 1.28438 86.9252 1.29765 87.4023 1.31055C87.8927 1.32345 88.4225 1.3291 88.9902 1.3291C89.5836 1.3291 90.1194 1.32345 90.5967 1.31055C91.0738 1.29765 91.4479 1.28438 91.7188 1.27148V1.72461ZM136.835 1.72461H125.977C125.979 1.57328 125.981 1.42225 125.981 1.27148C126.51 1.28439 127.078 1.29765 127.685 1.31055C128.304 1.32345 128.937 1.3291 129.582 1.3291H133.143C133.788 1.3291 134.426 1.32344 135.059 1.31055C135.704 1.29764 136.291 1.28439 136.82 1.27148C136.823 1.4217 136.83 1.57266 136.835 1.72461ZM153.902 1.72461H147.399V1.27148C147.735 1.28439 148.181 1.29764 148.735 1.31055C149.29 1.32345 149.929 1.3291 150.651 1.3291C151.335 1.3291 151.961 1.32344 152.528 1.31055C153.096 1.29765 153.554 1.28438 153.902 1.27148V1.72461Z" fill="white"/>
<path d="M106.259 2.7959C105.828 3.22855 105.46 3.73283 105.152 4.30762H107.098C107.024 4.4636 106.952 4.62499 106.886 4.79395C106.525 5.76166 106.344 6.88474 106.344 8.16211C106.344 9.45223 106.545 10.5746 106.945 11.5293C107.345 12.4841 107.887 13.2259 108.571 13.7549C109.255 14.2708 110.022 14.5293 110.874 14.5293C111.764 14.5292 112.539 14.2587 113.197 13.7168C113.868 13.1749 114.384 12.4196 114.745 11.4521C115.106 10.4844 115.287 9.36135 115.287 8.08398C115.287 6.78111 115.087 5.65856 114.687 4.7168C114.63 4.57549 114.567 4.43932 114.504 4.30762H116.591L116.663 4.4502C117.139 5.455 117.377 6.64731 117.377 8.02637C117.377 9.47129 117.099 10.7356 116.545 11.8193C116.003 12.9031 115.235 13.749 114.242 14.3555C113.261 14.9489 112.119 15.245 110.816 15.2451C109.487 15.2451 108.332 14.9678 107.351 14.4131C106.371 13.8454 105.609 13.0392 105.067 11.9941C104.525 10.9361 104.255 9.67779 104.255 8.21973C104.255 6.77458 104.532 5.50964 105.087 4.42578C105.407 3.80079 105.798 3.25778 106.259 2.7959ZM168.242 3.58691C168.085 3.81362 167.94 4.05412 167.805 4.30762H169.675C169.224 5.31837 168.998 6.57696 168.998 8.08398C168.998 10.0709 169.391 11.6388 170.178 12.7871C170.965 13.9225 172.043 14.4912 173.411 14.4912C174.198 14.4912 174.901 14.3103 175.52 13.9492C176.152 13.575 176.676 13.0584 177.089 12.4004C177.514 11.7425 177.791 10.9748 177.921 10.0977H178.695V12.3613C178.708 12.9807 178.72 13.5105 178.733 13.9492C178.746 14.3876 178.759 14.7874 178.772 15.1484H177.998C177.946 14.723 177.868 14.4265 177.765 14.2588C177.662 14.0912 177.52 14.0069 177.339 14.0068C177.133 14.0069 176.907 14.0715 176.663 14.2002C176.418 14.3163 176.127 14.4583 175.792 14.626C175.469 14.7936 175.082 14.9357 174.63 15.0518C174.179 15.1807 173.65 15.2451 173.044 15.2451C171.805 15.2451 170.727 14.9612 169.811 14.3936C168.895 13.8129 168.179 13.0002 167.663 11.9551C167.16 10.9099 166.908 9.69041 166.908 8.29688C166.908 6.8649 167.172 5.60052 167.701 4.50391C167.863 4.17665 168.044 3.87166 168.242 3.58691ZM60.4537 12.1025L62.9723 4.30762H63.7701L60.2555 15.1104H59.5592L55.5826 4.30762H57.6227L60.4537 12.1025ZM90.5084 11.084H90.8375V4.30762H91.611V15.1104H90.6432L84.0094 4.30762H86.3512L90.5084 11.084ZM7.39514 7.7168H14.0533V4.30762H16.0084V12.5557C16.0085 13.02 16.0595 13.3684 16.1627 13.6006C16.2659 13.8198 16.4791 13.9741 16.8014 14.0645C17.1239 14.1418 17.6211 14.1939 18.2916 14.2197V14.9746C17.9692 14.9488 17.5239 14.9356 16.9567 14.9355C16.4019 14.9226 15.7564 14.917 15.0211 14.917C14.389 14.917 13.8145 14.9227 13.2985 14.9355C12.7828 14.9355 12.3698 14.9488 12.0602 14.9746V14.2197C12.6405 14.1939 13.0733 14.1418 13.3571 14.0645C13.6403 13.9741 13.8273 13.8196 13.9176 13.6006C14.0079 13.3684 14.0533 13.0199 14.0533 12.5557V8.45215H7.39514V12.5557C7.39517 13.0071 7.44059 13.3489 7.53088 13.5811C7.62123 13.8132 7.8086 13.9741 8.09241 14.0645C8.38911 14.1418 8.82772 14.1939 9.40784 14.2197V14.9746C9.09828 14.9488 8.68528 14.9356 8.16956 14.9355C7.65352 14.9226 7.07238 14.917 6.42737 14.917C5.69213 14.917 5.04653 14.9227 4.49182 14.9355C3.93756 14.9356 3.49885 14.9488 3.17639 14.9746V14.2197C3.84695 14.1939 4.33754 14.1418 4.64709 14.0645C4.96929 13.9741 5.18259 13.8198 5.28577 13.6006C5.38892 13.3684 5.44003 13.0199 5.44006 12.5557V4.30762H7.39514V7.7168ZM35.778 8.90137L37.9342 4.89062C38.0466 4.68503 38.1398 4.48991 38.2184 4.30762H39.1237L36.2115 9.69141V12.3809C36.2115 12.8841 36.2692 13.2654 36.3854 13.5234C36.5145 13.7813 36.7729 13.9556 37.1598 14.0459C37.5469 14.1362 38.128 14.1939 38.902 14.2197V14.9746C38.515 14.9488 37.9981 14.9356 37.3531 14.9355C36.7082 14.9226 36.0048 14.917 35.2438 14.917C34.4439 14.917 33.7209 14.9226 33.0758 14.9355C32.431 14.9355 31.9206 14.9488 31.5465 14.9746V14.2197C32.3332 14.1939 32.9146 14.1362 33.2887 14.0459C33.6754 13.9556 33.9274 13.7812 34.0436 13.5234C34.1726 13.2654 34.2369 12.884 34.2369 12.3809V10.0557L30.7975 4.30762H33.0406L35.778 8.90137ZM54.5846 12.3232C54.5846 12.8134 54.6433 13.1939 54.7594 13.4648C54.8884 13.7228 55.1204 13.9103 55.4557 14.0264C55.8041 14.1295 56.3142 14.1939 56.985 14.2197V14.9746C56.727 14.9488 56.3521 14.9356 55.8619 14.9355C55.3847 14.9227 54.8553 14.917 54.275 14.917C53.6817 14.917 53.1458 14.9227 52.6686 14.9355C52.1916 14.9356 51.8174 14.9488 51.5465 14.9746V14.2197C52.1656 14.1939 52.6371 14.1296 52.9596 14.0264C53.2947 13.9102 53.5203 13.7227 53.6364 13.4648C53.7524 13.1939 53.8111 12.8134 53.8112 12.3232V4.30762H54.5846V12.3232ZM66.7399 12.5557C66.7399 13.02 66.7919 13.3684 66.8951 13.6006C67.0113 13.8196 67.2303 13.9742 67.5524 14.0645C67.875 14.1418 68.3662 14.1939 69.024 14.2197V14.9746C68.6757 14.9488 68.2233 14.9356 67.6686 14.9355C67.114 14.9227 66.4946 14.917 65.8112 14.917C65.1403 14.917 64.5393 14.9226 64.0104 14.9355C63.4948 14.9356 63.0883 14.9488 62.7916 14.9746V14.2197C63.372 14.1939 63.8047 14.1362 64.0885 14.0459C64.372 13.9556 64.5588 13.8002 64.649 13.5811C64.7393 13.3489 64.7848 13.007 64.7848 12.5557V4.30762H66.7399V12.5557ZM82.7662 12.3232C82.7663 12.8003 82.8241 13.1744 82.9401 13.4453C83.0562 13.7033 83.2824 13.8907 83.6178 14.0068C83.9662 14.1229 84.483 14.1939 85.1666 14.2197V14.9746C84.9086 14.9488 84.5337 14.9356 84.0436 14.9355C83.5534 14.9226 83.0242 14.917 82.4567 14.917C81.8633 14.917 81.3275 14.9227 80.8502 14.9355C80.373 14.9355 79.9981 14.9488 79.7272 14.9746V14.2197C80.3592 14.1939 80.8373 14.1229 81.1598 14.0068C81.4951 13.8907 81.7148 13.7033 81.818 13.4453C81.934 13.1744 81.9918 12.8003 81.9918 12.3232V4.30762H82.7662V12.3232ZM134.564 12.3809C134.564 12.8841 134.629 13.2654 134.758 13.5234C134.888 13.7811 135.139 13.9557 135.513 14.0459C135.9 14.1361 136.481 14.1939 137.255 14.2197V14.9746C136.855 14.9488 136.325 14.9356 135.668 14.9355C135.023 14.9226 134.332 14.917 133.596 14.917C132.81 14.917 132.093 14.9227 131.448 14.9355C130.803 14.9356 130.294 14.9488 129.92 14.9746V14.2197C130.693 14.1939 131.268 14.1362 131.642 14.0459C132.029 13.9556 132.287 13.7811 132.416 13.5234C132.545 13.2654 132.61 12.884 132.61 12.3809V4.30762H134.564V12.3809ZM153.796 12.5557C153.796 13.02 153.847 13.3684 153.95 13.6006C154.066 13.8198 154.286 13.9741 154.608 14.0645C154.931 14.1418 155.421 14.1939 156.079 14.2197V14.9746C155.73 14.9617 155.272 14.9484 154.705 14.9355C154.137 14.9227 153.511 14.917 152.828 14.917C152.105 14.917 151.466 14.9227 150.912 14.9355C150.357 14.9484 149.911 14.9617 149.576 14.9746V14.2197C150.233 14.1939 150.724 14.1418 151.047 14.0645C151.369 13.9742 151.582 13.8197 151.685 13.6006C151.788 13.3684 151.84 13.0199 151.84 12.5557V4.30762H153.796V12.5557ZM178.695 6.14844H177.921C177.802 5.45967 177.604 4.84631 177.329 4.30762H178.695V6.14844ZM128.924 4.30762C128.796 4.71562 128.675 5.19364 128.564 5.74219H127.791C127.87 5.24941 127.933 4.77102 127.983 4.30762H128.924ZM139.182 4.30762C139.237 4.7758 139.303 5.25416 139.383 5.74219H138.59C138.484 5.20018 138.366 4.73078 138.238 4.33398L138.228 4.30762H139.182ZM32.5338 3.44238L32.65 3.65234C32.6065 3.57973 32.5671 3.50976 32.5328 3.44238L32.4449 3.24805C32.47 3.31015 32.4995 3.37504 32.5338 3.44238ZM175.502 2.29688C175.656 2.38719 175.805 2.48681 175.947 2.5957C175.876 2.54117 175.802 2.48933 175.728 2.43945L175.502 2.29688ZM106.501 2.56934C106.571 2.50599 106.643 2.44269 106.716 2.38281L106.729 2.37305C106.651 2.43615 106.575 2.50234 106.501 2.56934ZM178.733 2.25879C178.739 2.0735 178.745 1.89524 178.751 1.72461H177.872C177.871 1.72625 177.87 1.72787 177.87 1.72949C177.921 1.56304 177.966 1.3529 177.998 1.09766H178.772L178.733 2.25879ZM173.178 1C173.759 1.00003 174.269 1.06533 174.708 1.19434C175.146 1.3104 175.527 1.4582 175.849 1.63867C175.904 1.6673 175.958 1.69712 176.01 1.72461H170.265C170.151 1.78875 170.038 1.85702 169.927 1.92969C170.869 1.31056 171.953 1.00004 173.178 1ZM110.836 1C112.151 1.00012 113.3 1.28413 114.28 1.85156C114.203 1.80727 114.125 1.76544 114.047 1.72461H110.987C110.918 1.72098 110.847 1.71681 110.777 1.7168C110.709 1.7168 110.642 1.72144 110.575 1.72461H107.719C108.635 1.24258 109.674 1 110.836 1ZM9.40784 1.72461H3.17639V1.27148C3.49885 1.28438 3.93756 1.29766 4.49182 1.31055C5.05942 1.32344 5.70503 1.3291 6.42737 1.3291C7.07238 1.3291 7.65352 1.32345 8.16956 1.31055C8.68528 1.29765 9.09828 1.28438 9.40784 1.27148V1.72461ZM18.2916 1.72461H12.0602V1.27148C12.3698 1.28438 12.7828 1.29765 13.2985 1.31055C13.8145 1.32344 14.389 1.3291 15.0211 1.3291C15.7564 1.3291 16.4019 1.32345 16.9567 1.31055C17.5239 1.29765 17.9692 1.28438 18.2916 1.27148V1.72461ZM34.2184 1.72461H27.7731V1.27148C28.2245 1.28438 28.6961 1.29765 29.1862 1.31055C29.6762 1.32343 30.1735 1.3291 30.6764 1.3291C31.4759 1.3291 32.1663 1.32344 32.7467 1.31055C33.3272 1.29765 33.8185 1.28438 34.2184 1.27148V1.72461ZM41.9987 1.72461H36.5406V1.27148C36.8373 1.28438 37.2503 1.29765 37.7789 1.31055C38.3079 1.32344 38.9411 1.3291 39.6764 1.3291C40.0501 1.32909 40.4114 1.32343 40.7594 1.31055C41.1206 1.29765 41.5343 1.28438 41.9987 1.27148V1.72461ZM56.6852 1.72461H51.5465V1.27148C51.8303 1.28438 52.2111 1.29765 52.6881 1.31055C53.1654 1.32344 53.7012 1.3291 54.2946 1.3291C54.7459 1.3291 55.1655 1.32344 55.5524 1.31055C55.952 1.29765 56.2751 1.28438 56.5201 1.27148L56.6852 1.72461ZM69.024 1.72461H63.8063L63.9528 1.27148C64.3782 1.29727 64.7525 1.3162 65.0748 1.3291H66.0817C66.6749 1.3291 67.2364 1.32344 67.7653 1.31055C68.2941 1.29765 68.7144 1.28438 69.024 1.27148V1.72461ZM84.7672 1.72461H79.7272V1.27148C80.011 1.28438 80.3925 1.29765 80.8698 1.31055C81.347 1.32344 81.8829 1.3291 82.4762 1.3291C82.8888 1.3291 83.2696 1.32344 83.6178 1.31055C83.966 1.29765 84.2567 1.28438 84.4889 1.27148L84.7672 1.72461ZM93.8951 1.72461H88.4567V1.27148C88.7275 1.28438 89.1018 1.29765 89.5787 1.31055C90.069 1.32344 90.599 1.3291 91.1666 1.3291C91.7599 1.3291 92.2959 1.32344 92.7731 1.31055C93.2501 1.29765 93.6243 1.28438 93.8951 1.27148V1.72461ZM139.011 1.72461H128.153C128.156 1.57328 128.158 1.42225 128.158 1.27148C128.687 1.28438 129.255 1.29765 129.861 1.31055C130.48 1.32344 131.113 1.3291 131.758 1.3291H135.319C135.964 1.3291 136.603 1.32344 137.235 1.31055C137.88 1.29765 138.468 1.28438 138.997 1.27148C138.999 1.42169 139.007 1.57267 139.011 1.72461ZM156.079 1.72461H149.576V1.27148C149.911 1.28438 150.357 1.29765 150.912 1.31055C151.466 1.32344 152.105 1.3291 152.828 1.3291C153.511 1.3291 154.137 1.32344 154.705 1.31055C155.272 1.29765 155.73 1.28438 156.079 1.27148V1.72461Z" fill="#FFF200" fill-opacity="0.61" style="mix-blend-mode:multiply"/>
<path d="M104.088 2.79004C103.655 3.22388 103.285 3.73046 102.976 4.30762H104.922C104.848 4.46363 104.775 4.62494 104.71 4.79395C104.349 5.76166 104.168 6.88474 104.168 8.16211C104.168 9.45223 104.369 10.5746 104.769 11.5293C105.169 12.4841 105.711 13.2259 106.395 13.7549C107.078 14.271 107.846 14.5293 108.697 14.5293C109.588 14.5293 110.362 14.2587 111.021 13.7168C111.691 13.1749 112.207 12.4198 112.568 11.4521C112.93 10.4844 113.11 9.3614 113.11 8.08398C113.11 6.78105 112.911 5.65859 112.511 4.7168C112.453 4.57543 112.391 4.43936 112.327 4.30762H114.415L114.486 4.4502C114.963 5.45502 115.2 6.64724 115.2 8.02637C115.2 9.47136 114.923 10.7356 114.368 11.8193C113.826 12.9032 113.059 13.749 112.065 14.3555C111.085 14.949 109.943 15.2451 108.64 15.2451C107.311 15.2451 106.155 14.9679 105.175 14.4131C104.194 13.8453 103.433 13.0392 102.891 11.9941C102.349 10.9361 102.078 9.67779 102.078 8.21973C102.078 6.77458 102.355 5.50964 102.91 4.42578C103.231 3.79839 103.624 3.25307 104.088 2.79004ZM166.065 3.58691C165.909 3.81367 165.763 4.05407 165.629 4.30762H167.499C167.048 5.31837 166.821 6.57696 166.821 8.08398C166.821 10.0709 167.215 11.6388 168.002 12.7871C168.789 13.9226 169.867 14.4912 171.234 14.4912C172.021 14.4912 172.725 14.3103 173.344 13.9492C173.976 13.575 174.499 13.0585 174.912 12.4004C175.338 11.7425 175.615 10.9748 175.744 10.0977H176.519V12.3613C176.531 12.9807 176.544 13.5105 176.557 13.9492C176.57 14.3876 176.583 14.7874 176.596 15.1484H175.821C175.77 14.7229 175.692 14.4265 175.589 14.2588C175.486 14.091 175.344 14.0068 175.163 14.0068C174.957 14.0069 174.731 14.0714 174.486 14.2002C174.241 14.3163 173.951 14.4583 173.615 14.626C173.293 14.7937 172.906 14.9356 172.454 15.0518C172.003 15.1808 171.473 15.2451 170.867 15.2451C169.628 15.2451 168.551 14.9613 167.635 14.3936C166.719 13.8129 166.002 13.0002 165.486 11.9551C164.983 10.9099 164.731 9.69041 164.731 8.29688C164.731 6.8649 164.996 5.60052 165.524 4.50391C165.686 4.1766 165.868 3.8717 166.065 3.58691ZM58.2773 12.1025L60.7959 4.30762H61.5938L58.0791 15.1104H57.3828L53.4062 4.30762H55.4463L58.2773 12.1025ZM88.332 11.084H88.6611V4.30762H89.4346V15.1104H88.4668L81.833 4.30762H84.1748L88.332 11.084ZM5.21875 7.7168H11.877V4.30762H13.832V12.5557C13.8321 13.02 13.8831 13.3684 13.9863 13.6006C14.0895 13.8198 14.3027 13.9741 14.625 14.0645C14.9475 14.1419 15.4445 14.1939 16.1152 14.2197V14.9746C15.7927 14.9488 15.3477 14.9355 14.7803 14.9355C14.2254 14.9226 13.5802 14.917 12.8447 14.917C12.2125 14.917 11.6382 14.9226 11.1221 14.9355C10.6062 14.9355 10.1934 14.9488 9.88379 14.9746V14.2197C10.4643 14.1939 10.8968 14.1419 11.1807 14.0645C11.4641 13.9741 11.6509 13.8197 11.7412 13.6006C11.8315 13.3684 11.8769 13.02 11.877 12.5557V8.45215H5.21875V12.5557C5.21878 13.0071 5.2642 13.3489 5.35449 13.5811C5.44482 13.8133 5.63215 13.9741 5.91602 14.0645C6.21272 14.1418 6.65111 14.1939 7.23145 14.2197V14.9746C6.92182 14.9488 6.50906 14.9355 5.99316 14.9355C5.47704 14.9226 4.89614 14.917 4.25098 14.917C3.51558 14.917 2.87022 14.9226 2.31543 14.9355C1.76096 14.9356 1.32249 14.9488 1 14.9746V14.2197C1.67075 14.1939 2.16109 14.1419 2.4707 14.0645C2.79308 13.9741 3.00616 13.8198 3.10938 13.6006C3.21257 13.3684 3.26364 13.02 3.26367 12.5557V4.30762H5.21875V7.7168ZM33.6016 8.90137L35.7578 4.89062C35.8702 4.68498 35.9634 4.48996 36.042 4.30762H36.9473L34.0352 9.69141V12.3809C34.0352 12.8841 34.0929 13.2654 34.209 13.5234C34.3381 13.7814 34.5964 13.9556 34.9834 14.0459C35.3705 14.1362 35.9514 14.1939 36.7256 14.2197V14.9746C36.3385 14.9488 35.8219 14.9355 35.1768 14.9355C34.5317 14.9226 33.8286 14.917 33.0674 14.917C32.2674 14.917 31.5446 14.9226 30.8994 14.9355C30.2544 14.9355 29.7443 14.9488 29.3701 14.9746V14.2197C30.157 14.1939 30.7381 14.1362 31.1123 14.0459C31.4992 13.9556 31.751 13.7813 31.8672 13.5234C31.9962 13.2654 32.0605 12.8841 32.0605 12.3809V10.0557L28.6211 4.30762H30.8643L33.6016 8.90137ZM52.4082 12.3232C52.4082 12.8134 52.4669 13.1939 52.583 13.4648C52.712 13.7229 52.9439 13.9102 53.2793 14.0264C53.6277 14.1296 54.1376 14.1939 54.8086 14.2197V14.9746C54.5505 14.9488 54.1759 14.9355 53.6855 14.9355C53.2083 14.9227 52.6791 14.917 52.0986 14.917C51.5052 14.917 50.9695 14.9226 50.4922 14.9355C50.015 14.9356 49.641 14.9488 49.3701 14.9746V14.2197C49.9894 14.1939 50.4607 14.1296 50.7832 14.0264C51.1185 13.9102 51.3439 13.7228 51.46 13.4648C51.5761 13.1939 51.6347 12.8134 51.6348 12.3232V4.30762H52.4082V12.3232ZM64.5635 12.5557C64.5635 13.02 64.6156 13.3684 64.7188 13.6006C64.8349 13.8197 65.0538 13.9742 65.376 14.0645C65.6986 14.1419 66.1896 14.1939 66.8477 14.2197V14.9746C66.4993 14.9488 66.047 14.9355 65.4922 14.9355C64.9375 14.9227 64.3184 14.917 63.6348 14.917C62.9638 14.917 62.363 14.9226 61.834 14.9355C61.3182 14.9356 60.9119 14.9488 60.6152 14.9746V14.2197C61.1958 14.1939 61.6283 14.1362 61.9121 14.0459C62.1958 13.9556 62.3823 13.8003 62.4727 13.5811C62.563 13.3489 62.6084 13.0071 62.6084 12.5557V4.30762H64.5635V12.5557ZM80.5898 12.3232C80.5899 12.8003 80.6477 13.1744 80.7637 13.4453C80.8798 13.7034 81.106 13.8907 81.4414 14.0068C81.7898 14.123 82.3064 14.1939 82.9902 14.2197V14.9746C82.7322 14.9488 82.3575 14.9355 81.8672 14.9355C81.3769 14.9226 80.8479 14.917 80.2803 14.917C79.6868 14.917 79.1512 14.9226 78.6738 14.9355C78.1964 14.9355 77.8217 14.9488 77.5508 14.9746V14.2197C78.183 14.1939 78.6608 14.123 78.9834 14.0068C79.3189 13.8907 79.5384 13.7034 79.6416 13.4453C79.7576 13.1744 79.8154 12.8004 79.8154 12.3232V4.30762H80.5898V12.3232ZM132.388 12.3809C132.388 12.8841 132.453 13.2654 132.582 13.5234C132.711 13.7812 132.963 13.9556 133.337 14.0459C133.724 14.1361 134.304 14.1939 135.078 14.2197V14.9746C134.678 14.9488 134.149 14.9355 133.491 14.9355C132.846 14.9226 132.155 14.917 131.42 14.917C130.633 14.917 129.917 14.9226 129.271 14.9355C128.627 14.9356 128.117 14.9488 127.743 14.9746V14.2197C128.517 14.1939 129.092 14.1362 129.466 14.0459C129.853 13.9556 130.11 13.7812 130.239 13.5234C130.368 13.2654 130.434 12.8841 130.434 12.3809V4.30762H132.388V12.3809ZM151.619 12.5557C151.619 13.02 151.67 13.3684 151.773 13.6006C151.89 13.8199 152.109 13.9741 152.432 14.0645C152.754 14.1419 153.245 14.1939 153.902 14.2197V14.9746C153.554 14.9617 153.096 14.9484 152.528 14.9355C151.961 14.9226 151.335 14.917 150.651 14.917C149.929 14.917 149.29 14.9226 148.735 14.9355C148.181 14.9485 147.735 14.9617 147.399 14.9746V14.2197C148.057 14.1939 148.548 14.1418 148.87 14.0645C149.193 13.9742 149.406 13.8198 149.509 13.6006C149.612 13.3684 149.664 13.02 149.664 12.5557V4.30762H151.619V12.5557ZM176.519 6.14844H175.744C175.626 5.45961 175.428 4.84634 175.152 4.30762H176.519V6.14844ZM126.748 4.30762C126.62 4.71564 126.499 5.19361 126.388 5.74219H125.614C125.694 5.24939 125.757 4.77104 125.807 4.30762H126.748ZM137.006 4.30762C137.061 4.77582 137.127 5.25415 137.207 5.74219H136.414C136.308 5.20013 136.19 4.73081 136.062 4.33398L136.052 4.30762H137.006ZM30.3574 3.44238L30.4736 3.65234C30.43 3.57968 30.3907 3.50981 30.3564 3.44238L30.2686 3.24805C30.2936 3.31019 30.3231 3.37499 30.3574 3.44238ZM173.325 2.29688C173.48 2.38723 173.629 2.48675 173.771 2.5957C173.699 2.54111 173.626 2.48938 173.552 2.43945L173.325 2.29688ZM104.324 2.56934C104.395 2.50593 104.466 2.44274 104.54 2.38281L104.553 2.37305C104.475 2.43621 104.399 2.50228 104.324 2.56934ZM176.557 2.25879C176.562 2.0735 176.569 1.89524 176.574 1.72461H175.695C175.695 1.72628 175.694 1.72783 175.693 1.72949C175.745 1.56302 175.789 1.35296 175.821 1.09766H176.596L176.557 2.25879ZM171.002 1C171.583 1 172.093 1.0653 172.531 1.19434C172.97 1.31041 173.35 1.45815 173.673 1.63867C173.728 1.66734 173.781 1.69707 173.834 1.72461H168.089C167.974 1.7888 167.862 1.85695 167.751 1.92969C168.693 1.31045 169.776 1.00004 171.002 1ZM108.659 1C109.975 1.00006 111.123 1.28407 112.104 1.85156C112.027 1.80721 111.949 1.76549 111.87 1.72461H108.811C108.741 1.72098 108.671 1.7168 108.601 1.7168C108.533 1.7168 108.465 1.72144 108.398 1.72461H105.543C106.459 1.24248 107.497 1 108.659 1ZM7.23145 1.72461H1V1.27148C1.32249 1.28438 1.76096 1.29765 2.31543 1.31055C2.88312 1.32345 3.52848 1.3291 4.25098 1.3291C4.89614 1.3291 5.47704 1.32345 5.99316 1.31055C6.50906 1.29765 6.92182 1.28438 7.23145 1.27148V1.72461ZM16.1152 1.72461H9.88379V1.27148C10.1934 1.28438 10.6062 1.29765 11.1221 1.31055C11.6382 1.32345 12.2125 1.3291 12.8447 1.3291C13.5802 1.3291 14.2254 1.32345 14.7803 1.31055C15.3477 1.29765 15.7927 1.28438 16.1152 1.27148V1.72461ZM32.042 1.72461H25.5967V1.27148C26.0482 1.28438 26.5195 1.29765 27.0098 1.31055C27.4999 1.32344 27.9969 1.3291 28.5 1.3291C29.2997 1.3291 29.9898 1.32344 30.5703 1.31055C31.151 1.29764 31.642 1.28439 32.042 1.27148V1.72461ZM39.8223 1.72461H34.3643V1.27148C34.661 1.28438 35.0737 1.29765 35.6025 1.31055C36.1316 1.32345 36.7645 1.3291 37.5 1.3291C37.8739 1.3291 38.2349 1.32343 38.583 1.31055C38.9443 1.29764 39.3577 1.28439 39.8223 1.27148V1.72461ZM54.5088 1.72461H49.3701V1.27148C49.6539 1.28438 50.0345 1.29765 50.5117 1.31055C50.9891 1.32345 51.5247 1.3291 52.1182 1.3291C52.5696 1.3291 52.989 1.32344 53.376 1.31055C53.7758 1.29765 54.0986 1.28438 54.3438 1.27148L54.5088 1.72461ZM66.8477 1.72461H61.6299L61.7764 1.27148C62.2019 1.29728 62.576 1.3162 62.8984 1.3291H63.9053C64.4987 1.3291 65.0599 1.32344 65.5889 1.31055C66.1179 1.29764 66.538 1.28439 66.8477 1.27148V1.72461ZM82.5908 1.72461H77.5508V1.27148C77.8347 1.28439 78.2159 1.29764 78.6934 1.31055C79.1707 1.32344 79.7064 1.3291 80.2998 1.3291C80.7126 1.3291 81.0931 1.32345 81.4414 1.31055C81.7898 1.29764 82.0802 1.28439 82.3125 1.27148L82.5908 1.72461ZM91.7188 1.72461H86.2803V1.27148C86.5512 1.28438 86.9252 1.29765 87.4023 1.31055C87.8927 1.32345 88.4225 1.3291 88.9902 1.3291C89.5836 1.3291 90.1194 1.32345 90.5967 1.31055C91.0738 1.29765 91.4479 1.28438 91.7188 1.27148V1.72461ZM136.835 1.72461H125.977C125.979 1.57328 125.981 1.42225 125.981 1.27148C126.51 1.28439 127.078 1.29765 127.685 1.31055C128.304 1.32345 128.937 1.3291 129.582 1.3291H133.143C133.788 1.3291 134.426 1.32344 135.059 1.31055C135.704 1.29764 136.291 1.28439 136.82 1.27148C136.823 1.4217 136.83 1.57266 136.835 1.72461ZM153.902 1.72461H147.399V1.27148C147.735 1.28439 148.181 1.29764 148.735 1.31055C149.29 1.32345 149.929 1.3291 150.651 1.3291C151.335 1.3291 151.961 1.32344 152.528 1.31055C153.096 1.29765 153.554 1.28438 153.902 1.27148V1.72461Z" fill="#00FFFB" style="mix-blend-mode:multiply"/>
</g>
<defs>
<filter id="filter0_f_209_811" x="0" y="0" width="179.772" height="16.2451" filterUnits="userSpaceOnUse" color-interpolation-filters="sRGB">
<feFlood flood-opacity="0" result="BackgroundImageFix"/>
<feBlend mode="normal" in="SourceGraphic" in2="BackgroundImageFix" result="shape"/>
<feGaussianBlur stdDeviation="0.5" result="effect1_foregroundBlur_209_811"/>
</filter>
</defs>
</svg>
