<svg width="118" height="16" viewBox="0 0 118 16" fill="none" xmlns="http://www.w3.org/2000/svg">
<g opacity="0.62" filter="url(#filter0_f_272_765)">
<path d="M61.6783 11.833L64.1959 4.03613H64.9948L61.4801 14.8389H60.7828L56.8073 4.03613H58.8463L61.6783 11.833ZM91.7321 10.8125H92.0612V4.03613H92.8356V14.8389H91.8678L85.233 4.03613H87.5748L91.7321 10.8125ZM8.61975 7.44531H15.277V4.03613H17.2321V12.2842C17.2321 12.7485 17.2841 13.0969 17.3873 13.3291C17.4906 13.5483 17.7035 13.7027 18.026 13.793C18.3486 13.8704 18.8453 13.9224 19.5162 13.9482V14.7031C19.1937 14.6773 18.748 14.6641 18.1803 14.6641C17.6255 14.6512 16.9801 14.6455 16.2448 14.6455C15.6126 14.6455 15.0381 14.6512 14.5221 14.6641C14.0062 14.6641 13.5934 14.6773 13.2838 14.7031V13.9482C13.8645 13.9224 14.2968 13.8704 14.5807 13.793C14.8644 13.7026 15.0519 13.5484 15.1422 13.3291C15.2325 13.0969 15.277 12.7485 15.277 12.2842V8.18066H8.61975V12.2842C8.61978 12.7355 8.66425 13.0774 8.75452 13.3096C8.84482 13.5418 9.03229 13.7026 9.31604 13.793C9.61281 13.8704 10.0518 13.9224 10.6324 13.9482V14.7031C10.3228 14.6773 9.90932 14.6641 9.39319 14.6641C8.87725 14.6512 8.29684 14.6455 7.65198 14.6455C6.91664 14.6455 6.2712 14.6512 5.71643 14.6641C5.16161 14.6641 4.7226 14.6773 4.40002 14.7031V13.9482C5.0709 13.9224 5.56105 13.8704 5.87073 13.793C6.19319 13.7027 6.40613 13.5483 6.5094 13.3291C6.61259 13.0969 6.66464 12.7485 6.66467 12.2842V4.03613H8.61975V7.44531ZM37.0026 8.63086L39.1578 4.61914C39.2703 4.41336 39.3643 4.21858 39.443 4.03613H40.3483L37.4352 9.4209V12.1094C37.4352 12.6126 37.4939 12.9939 37.61 13.252C37.7391 13.5097 37.9968 13.6841 38.3834 13.7744C38.7705 13.8647 39.3515 13.9224 40.1256 13.9482V14.7031C39.7386 14.6773 39.2227 14.6641 38.5778 14.6641C37.9326 14.6512 37.2287 14.6455 36.4674 14.6455C35.6677 14.6455 34.9454 14.6512 34.3004 14.6641C33.6553 14.6641 33.1453 14.6773 32.7711 14.7031V13.9482C33.5582 13.9224 34.1391 13.8647 34.5133 13.7744C34.9001 13.6841 35.152 13.5098 35.2682 13.252C35.3972 12.9939 35.4615 12.6126 35.4615 12.1094V9.78418L32.0221 4.03613H34.2653L37.0026 8.63086ZM55.8092 12.0518C55.8092 12.5419 55.867 12.9224 55.983 13.1934C56.1121 13.4514 56.3448 13.6388 56.6803 13.7549C57.0286 13.858 57.5381 13.9224 58.2086 13.9482V14.7031C57.9506 14.6773 57.5766 14.6641 57.0865 14.6641C56.6092 14.6512 56.0802 14.6455 55.4996 14.6455C54.9062 14.6455 54.3705 14.6512 53.8932 14.6641C53.4158 14.6641 53.0411 14.6773 52.7701 14.7031V13.9482C53.3895 13.9224 53.8606 13.8581 54.1832 13.7549C54.5187 13.6388 54.7448 13.4514 54.861 13.1934C54.977 12.9224 55.0348 12.5418 55.0348 12.0518V4.03613H55.8092V12.0518ZM67.9635 12.2842C67.9635 12.7485 68.0156 13.0969 68.1188 13.3291C68.2349 13.5484 68.4545 13.7027 68.777 13.793C69.0996 13.8704 69.5897 13.9224 70.2477 13.9482V14.7031C69.8994 14.6773 69.4479 14.6641 68.8932 14.6641C68.3384 14.6512 67.7187 14.6455 67.0348 14.6455C66.3639 14.6455 65.764 14.6512 65.235 14.6641C64.7189 14.6641 64.312 14.6773 64.0153 14.7031V13.9482C64.5958 13.9224 65.0283 13.8647 65.3121 13.7744C65.596 13.6841 65.7833 13.5289 65.8737 13.3096C65.9639 13.0774 66.0094 12.7356 66.0094 12.2842V4.03613H67.9635V12.2842ZM83.9899 12.0518C83.9899 12.529 84.0486 12.9029 84.1647 13.1738C84.2808 13.4318 84.5062 13.6192 84.8414 13.7354C85.1898 13.8515 85.7064 13.9224 86.3903 13.9482V14.7031C86.1322 14.6773 85.7575 14.6641 85.2672 14.6641C84.777 14.6512 84.2479 14.6455 83.6803 14.6455C83.0869 14.6455 82.5512 14.6512 82.0739 14.6641C81.5967 14.6641 81.2227 14.6773 80.9518 14.7031V13.9482C81.5837 13.9224 82.0609 13.8514 82.3834 13.7354C82.7189 13.6192 82.9384 13.4319 83.0416 13.1738C83.1577 12.9029 83.2164 12.529 83.2164 12.0518V4.03613H83.9899V12.0518ZM107.818 13.8906H110.566C111.289 13.8906 111.902 13.8386 112.405 13.7354C112.908 13.6192 113.334 13.4195 113.682 13.1357C114.031 12.8519 114.328 12.4583 114.573 11.9551C114.831 11.4519 115.076 10.7934 115.308 9.98047H116.082C115.978 10.7934 115.902 11.5938 115.85 12.3809C115.799 13.155 115.772 13.929 115.772 14.7031C115.256 14.6773 114.695 14.6641 114.089 14.6641C113.495 14.6512 112.895 14.6455 112.289 14.6455H110.624C109.811 14.6455 108.953 14.6512 108.049 14.6641C107.159 14.6641 106.321 14.6773 105.534 14.7031V13.9482L112.157 4.03613H114.403L107.818 13.8906ZM106.899 4.0625C106.776 4.4593 106.656 4.92872 106.54 5.4707H105.766C105.848 4.98738 105.913 4.50906 105.964 4.03613H106.908L106.899 4.0625ZM31.1324 2.62988C31.1444 2.64475 31.1556 2.66046 31.1676 2.67578C31.113 2.60603 31.0593 2.54037 31.0045 2.48047L31.1324 2.62988ZM93.1559 2.29102C93.1652 2.2798 93.1734 2.26765 93.1832 2.25684L93.2614 2.18066C93.2227 2.21479 93.1881 2.25207 93.1559 2.29102ZM68.4576 2.0293L68.5543 1.98242C68.5633 1.97859 68.5725 1.97536 68.5817 1.97168C68.5379 1.98926 68.4963 2.0079 68.4576 2.0293ZM10.6324 1.45312H4.40002V1C4.7226 1.0129 5.16162 1.02616 5.71643 1.03906C6.28409 1.05196 6.92953 1.05762 7.65198 1.05762C8.29684 1.05761 8.87725 1.05196 9.39319 1.03906C9.90932 1.02616 10.3228 1.0129 10.6324 1V1.45312ZM19.5162 1.45312H13.2838V1C13.5934 1.0129 14.0062 1.02616 14.5221 1.03906C15.0381 1.05196 15.6126 1.05761 16.2448 1.05762C16.9801 1.05762 17.6255 1.05196 18.1803 1.03906C18.748 1.02616 19.1937 1.0129 19.5162 1V1.45312ZM35.442 1.45312H28.9967V1C29.4483 1.0129 29.9195 1.02616 30.4098 1.03906C30.9001 1.05196 31.3968 1.05762 31.9 1.05762C32.7 1.05762 33.3907 1.05197 33.9713 1.03906C34.5518 1.02616 35.0421 1.0129 35.442 1V1.45312ZM43.2223 1.45312H37.7643V1C38.0611 1.0129 38.4745 1.02616 39.0035 1.03906C39.5325 1.05196 40.1647 1.05762 40.9 1.05762C41.2742 1.05762 41.6356 1.05197 41.984 1.03906C42.3452 1.02616 42.7579 1.0129 43.2223 1V1.45312ZM57.9098 1.45312H52.7701V1C53.054 1.0129 53.4353 1.02616 53.9127 1.03906C54.39 1.05196 54.9258 1.05762 55.5192 1.05762C55.9706 1.05761 56.39 1.05196 56.777 1.03906C57.1769 1.02616 57.4996 1.0129 57.7448 1L57.9098 1.45312ZM70.2477 1.45312H65.0299L65.1764 1C65.6022 1.02581 65.9769 1.04471 66.2994 1.05762H67.3053C67.8988 1.05762 68.4608 1.05197 68.9899 1.03906C69.5188 1.02616 69.938 1.0129 70.2477 1V1.45312ZM85.9908 1.45312H80.9518V1C81.2356 1.0129 81.6161 1.02616 82.0934 1.03906C82.5708 1.05196 83.1063 1.05762 83.6998 1.05762C84.1126 1.05762 84.4932 1.05195 84.8414 1.03906C85.1897 1.02617 85.4803 1.0129 85.7125 1L85.9908 1.45312ZM95.1198 1.45312H89.6803V1C89.9513 1.0129 90.3259 1.02616 90.8033 1.03906C91.2936 1.05196 91.8226 1.05762 92.3903 1.05762C92.9838 1.05762 93.5193 1.05197 93.9967 1.03906C94.4741 1.02616 94.8488 1.0129 95.1198 1V1.45312ZM115.927 1.45312H106.129C106.131 1.30234 106.133 1.15131 106.133 1C106.611 1.0129 107.127 1.02616 107.682 1.03906C108.25 1.05196 108.811 1.05762 109.366 1.05762H113.43C114.346 1.04471 115.179 1.02581 115.927 1V1.45312Z" fill="white"/>
<path d="M58.2783 11.833L60.7959 4.03613H61.5947L58.0801 14.8389H57.3828L53.4072 4.03613H55.4463L58.2783 11.833ZM88.332 10.8125H88.6611V4.03613H89.4355V14.8389H88.4678L81.833 4.03613H84.1748L88.332 10.8125ZM5.21973 7.44531H11.877V4.03613H13.832V12.2842C13.8321 12.7485 13.8841 13.0969 13.9873 13.3291C14.0906 13.5483 14.3035 13.7027 14.626 13.793C14.9486 13.8704 15.4453 13.9224 16.1162 13.9482V14.7031C15.7936 14.6773 15.348 14.6641 14.7803 14.6641C14.2255 14.6512 13.5801 14.6455 12.8447 14.6455C12.2126 14.6455 11.6381 14.6512 11.1221 14.6641C10.6062 14.6641 10.1934 14.6773 9.88379 14.7031V13.9482C10.4644 13.9224 10.8968 13.8704 11.1807 13.793C11.4644 13.7026 11.6519 13.5484 11.7422 13.3291C11.8325 13.0969 11.8769 12.7485 11.877 12.2842V8.18066H5.21973V12.2842C5.21975 12.7355 5.26423 13.0774 5.35449 13.3096C5.44479 13.5418 5.63226 13.7026 5.91602 13.793C6.21279 13.8704 6.65178 13.9224 7.23242 13.9482V14.7031C6.92274 14.6773 6.50929 14.6641 5.99316 14.6641C5.47722 14.6512 4.89682 14.6455 4.25195 14.6455C3.51661 14.6455 2.87117 14.6512 2.31641 14.6641C1.76159 14.6641 1.32258 14.6773 1 14.7031V13.9482C1.67087 13.9224 2.16103 13.8704 2.4707 13.793C2.79317 13.7027 3.00611 13.5483 3.10938 13.3291C3.21257 13.0969 3.26462 12.7485 3.26465 12.2842V4.03613H5.21973V7.44531ZM33.6025 8.63086L35.7578 4.61914C35.8703 4.41336 35.9643 4.21858 36.043 4.03613H36.9482L34.0352 9.4209V12.1094C34.0352 12.6126 34.0938 12.9939 34.21 13.252C34.339 13.5097 34.5967 13.6841 34.9834 13.7744C35.3705 13.8647 35.9515 13.9224 36.7256 13.9482V14.7031C36.3386 14.6773 35.8226 14.6641 35.1777 14.6641C34.5326 14.6512 33.8287 14.6455 33.0674 14.6455C32.2677 14.6455 31.5454 14.6512 30.9004 14.6641C30.2553 14.6641 29.7453 14.6773 29.3711 14.7031V13.9482C30.1581 13.9224 30.7391 13.8647 31.1133 13.7744C31.5001 13.6841 31.752 13.5098 31.8682 13.252C31.9972 12.9939 32.0615 12.6126 32.0615 12.1094V9.78418L28.6221 4.03613H30.8652L33.6025 8.63086ZM52.4092 12.0518C52.4092 12.5419 52.4669 12.9224 52.583 13.1934C52.712 13.4514 52.9448 13.6388 53.2803 13.7549C53.6286 13.858 54.138 13.9224 54.8086 13.9482V14.7031C54.5506 14.6773 54.1765 14.6641 53.6865 14.6641C53.2092 14.6512 52.6801 14.6455 52.0996 14.6455C51.5062 14.6455 50.9705 14.6512 50.4932 14.6641C50.0157 14.6641 49.6411 14.6773 49.3701 14.7031V13.9482C49.9895 13.9224 50.4606 13.8581 50.7832 13.7549C51.1187 13.6388 51.3448 13.4514 51.4609 13.1934C51.577 12.9224 51.6347 12.5418 51.6348 12.0518V4.03613H52.4092V12.0518ZM64.5635 12.2842C64.5635 12.7485 64.6156 13.0969 64.7188 13.3291C64.8349 13.5484 65.0545 13.7027 65.377 13.793C65.6995 13.8704 66.1897 13.9224 66.8477 13.9482V14.7031C66.4993 14.6773 66.0478 14.6641 65.4932 14.6641C64.9383 14.6512 64.3186 14.6455 63.6348 14.6455C62.9639 14.6455 62.3639 14.6512 61.835 14.6641C61.3188 14.6641 60.912 14.6773 60.6152 14.7031V13.9482C61.1958 13.9224 61.6282 13.8647 61.9121 13.7744C62.196 13.6841 62.3833 13.5289 62.4736 13.3096C62.5639 13.0774 62.6093 12.7356 62.6094 12.2842V4.03613H64.5635V12.2842ZM80.5898 12.0518C80.5899 12.529 80.6486 12.9029 80.7646 13.1738C80.8807 13.4318 81.1061 13.6192 81.4414 13.7354C81.7898 13.8515 82.3064 13.9224 82.9902 13.9482V14.7031C82.7322 14.6773 82.3575 14.6641 81.8672 14.6641C81.377 14.6512 80.8478 14.6455 80.2803 14.6455C79.6868 14.6455 79.1512 14.6512 78.6738 14.6641C78.1967 14.6641 77.8227 14.6773 77.5518 14.7031V13.9482C78.1837 13.9224 78.6609 13.8514 78.9834 13.7354C79.3189 13.6192 79.5384 13.4319 79.6416 13.1738C79.7577 12.9029 79.8164 12.529 79.8164 12.0518V4.03613H80.5898V12.0518ZM104.418 13.8906H107.166C107.889 13.8906 108.502 13.8386 109.005 13.7354C109.508 13.6192 109.934 13.4195 110.282 13.1357C110.631 12.8519 110.928 12.4583 111.173 11.9551C111.431 11.4519 111.676 10.7934 111.908 9.98047H112.682C112.578 10.7934 112.502 11.5938 112.45 12.3809C112.399 13.155 112.372 13.929 112.372 14.7031C111.856 14.6773 111.295 14.6641 110.688 14.6641C110.095 14.6512 109.495 14.6455 108.889 14.6455H107.224C106.411 14.6455 105.553 14.6512 104.649 14.6641C103.759 14.6641 102.921 14.6773 102.134 14.7031V13.9482L108.757 4.03613H111.003L104.418 13.8906ZM103.499 4.0625C103.376 4.4593 103.256 4.92872 103.14 5.4707H102.366C102.448 4.98738 102.513 4.50906 102.563 4.03613H103.508L103.499 4.0625ZM27.7324 2.62988C27.7444 2.64475 27.7556 2.66046 27.7676 2.67578C27.713 2.60603 27.6593 2.54037 27.6045 2.48047L27.7324 2.62988ZM89.7559 2.29102C89.7652 2.2798 89.7734 2.26765 89.7832 2.25684L89.8613 2.18066C89.8226 2.21479 89.7881 2.25207 89.7559 2.29102ZM65.0576 2.0293L65.1543 1.98242C65.1632 1.97859 65.1725 1.97536 65.1816 1.97168C65.1379 1.98926 65.0963 2.0079 65.0576 2.0293ZM7.23242 1.45312H1V1C1.32258 1.0129 1.76159 1.02616 2.31641 1.03906C2.88407 1.05196 3.52951 1.05762 4.25195 1.05762C4.89681 1.05761 5.47723 1.05196 5.99316 1.03906C6.50929 1.02616 6.92274 1.0129 7.23242 1V1.45312ZM16.1162 1.45312H9.88379V1C10.1934 1.0129 10.6062 1.02616 11.1221 1.03906C11.6381 1.05196 12.2126 1.05761 12.8447 1.05762C13.5801 1.05762 14.2255 1.05196 14.7803 1.03906C15.348 1.02616 15.7936 1.0129 16.1162 1V1.45312ZM32.042 1.45312H25.5967V1C26.0483 1.0129 26.5194 1.02616 27.0098 1.03906C27.5001 1.05196 27.9968 1.05762 28.5 1.05762C29.3 1.05762 29.9906 1.05197 30.5713 1.03906C31.1518 1.02616 31.6421 1.0129 32.042 1V1.45312ZM39.8223 1.45312H34.3643V1C34.661 1.0129 35.0745 1.02616 35.6035 1.03906C36.1325 1.05196 36.7647 1.05762 37.5 1.05762C37.8742 1.05762 38.2356 1.05197 38.584 1.03906C38.9452 1.02616 39.3579 1.0129 39.8223 1V1.45312ZM54.5098 1.45312H49.3701V1C49.654 1.0129 50.0353 1.02616 50.5127 1.03906C50.99 1.05196 51.5258 1.05762 52.1191 1.05762C52.5706 1.05761 52.99 1.05196 53.377 1.03906C53.7769 1.02616 54.0996 1.0129 54.3447 1L54.5098 1.45312ZM66.8477 1.45312H61.6299L61.7764 1C62.2022 1.02581 62.5768 1.04471 62.8994 1.05762H63.9053C64.4988 1.05762 65.0608 1.05197 65.5898 1.03906C66.1188 1.02616 66.538 1.0129 66.8477 1V1.45312ZM82.5908 1.45312H77.5518V1C77.8356 1.0129 78.2161 1.02616 78.6934 1.03906C79.1708 1.05196 79.7063 1.05762 80.2998 1.05762C80.7125 1.05762 81.0931 1.05195 81.4414 1.03906C81.7896 1.02617 82.0803 1.0129 82.3125 1L82.5908 1.45312ZM91.7197 1.45312H86.2803V1C86.5512 1.0129 86.9259 1.02616 87.4033 1.03906C87.8936 1.05196 88.4226 1.05762 88.9902 1.05762C89.5838 1.05762 90.1193 1.05197 90.5967 1.03906C91.0741 1.02616 91.4488 1.0129 91.7197 1V1.45312ZM112.527 1.45312H102.729C102.731 1.30234 102.733 1.15131 102.733 1C103.211 1.0129 103.727 1.02616 104.282 1.03906C104.85 1.05196 105.411 1.05762 105.966 1.05762H110.03C110.946 1.04471 111.779 1.02581 112.527 1V1.45312Z" fill="white"/>
<path d="M61.6783 11.833L64.1959 4.03613H64.9948L61.4801 14.8389H60.7828L56.8073 4.03613H58.8463L61.6783 11.833ZM91.7321 10.8125H92.0612V4.03613H92.8356V14.8389H91.8678L85.233 4.03613H87.5748L91.7321 10.8125ZM8.61975 7.44531H15.277V4.03613H17.2321V12.2842C17.2321 12.7485 17.2841 13.0969 17.3873 13.3291C17.4906 13.5483 17.7035 13.7027 18.026 13.793C18.3486 13.8704 18.8453 13.9224 19.5162 13.9482V14.7031C19.1937 14.6773 18.748 14.6641 18.1803 14.6641C17.6255 14.6512 16.9801 14.6455 16.2448 14.6455C15.6126 14.6455 15.0381 14.6512 14.5221 14.6641C14.0062 14.6641 13.5934 14.6773 13.2838 14.7031V13.9482C13.8645 13.9224 14.2968 13.8704 14.5807 13.793C14.8644 13.7026 15.0519 13.5484 15.1422 13.3291C15.2325 13.0969 15.277 12.7485 15.277 12.2842V8.18066H8.61975V12.2842C8.61978 12.7355 8.66425 13.0774 8.75452 13.3096C8.84482 13.5418 9.03229 13.7026 9.31604 13.793C9.61281 13.8704 10.0518 13.9224 10.6324 13.9482V14.7031C10.3228 14.6773 9.90932 14.6641 9.39319 14.6641C8.87725 14.6512 8.29684 14.6455 7.65198 14.6455C6.91664 14.6455 6.2712 14.6512 5.71643 14.6641C5.16161 14.6641 4.7226 14.6773 4.40002 14.7031V13.9482C5.0709 13.9224 5.56105 13.8704 5.87073 13.793C6.19319 13.7027 6.40613 13.5483 6.5094 13.3291C6.61259 13.0969 6.66464 12.7485 6.66467 12.2842V4.03613H8.61975V7.44531ZM37.0026 8.63086L39.1578 4.61914C39.2703 4.41336 39.3643 4.21858 39.443 4.03613H40.3483L37.4352 9.4209V12.1094C37.4352 12.6126 37.4939 12.9939 37.61 13.252C37.7391 13.5097 37.9968 13.6841 38.3834 13.7744C38.7705 13.8647 39.3515 13.9224 40.1256 13.9482V14.7031C39.7386 14.6773 39.2227 14.6641 38.5778 14.6641C37.9326 14.6512 37.2287 14.6455 36.4674 14.6455C35.6677 14.6455 34.9454 14.6512 34.3004 14.6641C33.6553 14.6641 33.1453 14.6773 32.7711 14.7031V13.9482C33.5582 13.9224 34.1391 13.8647 34.5133 13.7744C34.9001 13.6841 35.152 13.5098 35.2682 13.252C35.3972 12.9939 35.4615 12.6126 35.4615 12.1094V9.78418L32.0221 4.03613H34.2653L37.0026 8.63086ZM55.8092 12.0518C55.8092 12.5419 55.867 12.9224 55.983 13.1934C56.1121 13.4514 56.3448 13.6388 56.6803 13.7549C57.0286 13.858 57.5381 13.9224 58.2086 13.9482V14.7031C57.9506 14.6773 57.5766 14.6641 57.0865 14.6641C56.6092 14.6512 56.0802 14.6455 55.4996 14.6455C54.9062 14.6455 54.3705 14.6512 53.8932 14.6641C53.4158 14.6641 53.0411 14.6773 52.7701 14.7031V13.9482C53.3895 13.9224 53.8606 13.8581 54.1832 13.7549C54.5187 13.6388 54.7448 13.4514 54.861 13.1934C54.977 12.9224 55.0348 12.5418 55.0348 12.0518V4.03613H55.8092V12.0518ZM67.9635 12.2842C67.9635 12.7485 68.0156 13.0969 68.1188 13.3291C68.2349 13.5484 68.4545 13.7027 68.777 13.793C69.0996 13.8704 69.5897 13.9224 70.2477 13.9482V14.7031C69.8994 14.6773 69.4479 14.6641 68.8932 14.6641C68.3384 14.6512 67.7187 14.6455 67.0348 14.6455C66.3639 14.6455 65.764 14.6512 65.235 14.6641C64.7189 14.6641 64.312 14.6773 64.0153 14.7031V13.9482C64.5958 13.9224 65.0283 13.8647 65.3121 13.7744C65.596 13.6841 65.7833 13.5289 65.8737 13.3096C65.9639 13.0774 66.0094 12.7356 66.0094 12.2842V4.03613H67.9635V12.2842ZM83.9899 12.0518C83.9899 12.529 84.0486 12.9029 84.1647 13.1738C84.2808 13.4318 84.5062 13.6192 84.8414 13.7354C85.1898 13.8515 85.7064 13.9224 86.3903 13.9482V14.7031C86.1322 14.6773 85.7575 14.6641 85.2672 14.6641C84.777 14.6512 84.2479 14.6455 83.6803 14.6455C83.0869 14.6455 82.5512 14.6512 82.0739 14.6641C81.5967 14.6641 81.2227 14.6773 80.9518 14.7031V13.9482C81.5837 13.9224 82.0609 13.8514 82.3834 13.7354C82.7189 13.6192 82.9384 13.4319 83.0416 13.1738C83.1577 12.9029 83.2164 12.529 83.2164 12.0518V4.03613H83.9899V12.0518ZM107.818 13.8906H110.566C111.289 13.8906 111.902 13.8386 112.405 13.7354C112.908 13.6192 113.334 13.4195 113.682 13.1357C114.031 12.8519 114.328 12.4583 114.573 11.9551C114.831 11.4519 115.076 10.7934 115.308 9.98047H116.082C115.978 10.7934 115.902 11.5938 115.85 12.3809C115.799 13.155 115.772 13.929 115.772 14.7031C115.256 14.6773 114.695 14.6641 114.089 14.6641C113.495 14.6512 112.895 14.6455 112.289 14.6455H110.624C109.811 14.6455 108.953 14.6512 108.049 14.6641C107.159 14.6641 106.321 14.6773 105.534 14.7031V13.9482L112.157 4.03613H114.403L107.818 13.8906ZM106.899 4.0625C106.776 4.4593 106.656 4.92872 106.54 5.4707H105.766C105.848 4.98738 105.913 4.50906 105.964 4.03613H106.908L106.899 4.0625ZM31.1324 2.62988C31.1444 2.64475 31.1556 2.66046 31.1676 2.67578C31.113 2.60603 31.0593 2.54037 31.0045 2.48047L31.1324 2.62988ZM93.1559 2.29102C93.1652 2.2798 93.1734 2.26765 93.1832 2.25684L93.2614 2.18066C93.2227 2.21479 93.1881 2.25207 93.1559 2.29102ZM68.4576 2.0293L68.5543 1.98242C68.5633 1.97859 68.5725 1.97536 68.5817 1.97168C68.5379 1.98926 68.4963 2.0079 68.4576 2.0293ZM10.6324 1.45312H4.40002V1C4.7226 1.0129 5.16162 1.02616 5.71643 1.03906C6.28409 1.05196 6.92953 1.05762 7.65198 1.05762C8.29684 1.05761 8.87725 1.05196 9.39319 1.03906C9.90932 1.02616 10.3228 1.0129 10.6324 1V1.45312ZM19.5162 1.45312H13.2838V1C13.5934 1.0129 14.0062 1.02616 14.5221 1.03906C15.0381 1.05196 15.6126 1.05761 16.2448 1.05762C16.9801 1.05762 17.6255 1.05196 18.1803 1.03906C18.748 1.02616 19.1937 1.0129 19.5162 1V1.45312ZM35.442 1.45312H28.9967V1C29.4483 1.0129 29.9195 1.02616 30.4098 1.03906C30.9001 1.05196 31.3968 1.05762 31.9 1.05762C32.7 1.05762 33.3907 1.05197 33.9713 1.03906C34.5518 1.02616 35.0421 1.0129 35.442 1V1.45312ZM43.2223 1.45312H37.7643V1C38.0611 1.0129 38.4745 1.02616 39.0035 1.03906C39.5325 1.05196 40.1647 1.05762 40.9 1.05762C41.2742 1.05762 41.6356 1.05197 41.984 1.03906C42.3452 1.02616 42.7579 1.0129 43.2223 1V1.45312ZM57.9098 1.45312H52.7701V1C53.054 1.0129 53.4353 1.02616 53.9127 1.03906C54.39 1.05196 54.9258 1.05762 55.5192 1.05762C55.9706 1.05761 56.39 1.05196 56.777 1.03906C57.1769 1.02616 57.4996 1.0129 57.7448 1L57.9098 1.45312ZM70.2477 1.45312H65.0299L65.1764 1C65.6022 1.02581 65.9769 1.04471 66.2994 1.05762H67.3053C67.8988 1.05762 68.4608 1.05197 68.9899 1.03906C69.5188 1.02616 69.938 1.0129 70.2477 1V1.45312ZM85.9908 1.45312H80.9518V1C81.2356 1.0129 81.6161 1.02616 82.0934 1.03906C82.5708 1.05196 83.1063 1.05762 83.6998 1.05762C84.1126 1.05762 84.4932 1.05195 84.8414 1.03906C85.1897 1.02617 85.4803 1.0129 85.7125 1L85.9908 1.45312ZM95.1198 1.45312H89.6803V1C89.9513 1.0129 90.3259 1.02616 90.8033 1.03906C91.2936 1.05196 91.8226 1.05762 92.3903 1.05762C92.9838 1.05762 93.5193 1.05197 93.9967 1.03906C94.4741 1.02616 94.8488 1.0129 95.1198 1V1.45312ZM115.927 1.45312H106.129C106.131 1.30234 106.133 1.15131 106.133 1C106.611 1.0129 107.127 1.02616 107.682 1.03906C108.25 1.05196 108.811 1.05762 109.366 1.05762H113.43C114.346 1.04471 115.179 1.02581 115.927 1V1.45312Z" fill="#FFF200" fill-opacity="0.61" style="mix-blend-mode:multiply"/>
<path d="M58.2783 11.833L60.7959 4.03613H61.5947L58.0801 14.8389H57.3828L53.4072 4.03613H55.4463L58.2783 11.833ZM88.332 10.8125H88.6611V4.03613H89.4355V14.8389H88.4678L81.833 4.03613H84.1748L88.332 10.8125ZM5.21973 7.44531H11.877V4.03613H13.832V12.2842C13.8321 12.7485 13.8841 13.0969 13.9873 13.3291C14.0906 13.5483 14.3035 13.7027 14.626 13.793C14.9486 13.8704 15.4453 13.9224 16.1162 13.9482V14.7031C15.7936 14.6773 15.348 14.6641 14.7803 14.6641C14.2255 14.6512 13.5801 14.6455 12.8447 14.6455C12.2126 14.6455 11.6381 14.6512 11.1221 14.6641C10.6062 14.6641 10.1934 14.6773 9.88379 14.7031V13.9482C10.4644 13.9224 10.8968 13.8704 11.1807 13.793C11.4644 13.7026 11.6519 13.5484 11.7422 13.3291C11.8325 13.0969 11.8769 12.7485 11.877 12.2842V8.18066H5.21973V12.2842C5.21975 12.7355 5.26423 13.0774 5.35449 13.3096C5.44479 13.5418 5.63226 13.7026 5.91602 13.793C6.21279 13.8704 6.65178 13.9224 7.23242 13.9482V14.7031C6.92274 14.6773 6.50929 14.6641 5.99316 14.6641C5.47722 14.6512 4.89682 14.6455 4.25195 14.6455C3.51661 14.6455 2.87117 14.6512 2.31641 14.6641C1.76159 14.6641 1.32258 14.6773 1 14.7031V13.9482C1.67087 13.9224 2.16103 13.8704 2.4707 13.793C2.79317 13.7027 3.00611 13.5483 3.10938 13.3291C3.21257 13.0969 3.26462 12.7485 3.26465 12.2842V4.03613H5.21973V7.44531ZM33.6025 8.63086L35.7578 4.61914C35.8703 4.41336 35.9643 4.21858 36.043 4.03613H36.9482L34.0352 9.4209V12.1094C34.0352 12.6126 34.0938 12.9939 34.21 13.252C34.339 13.5097 34.5967 13.6841 34.9834 13.7744C35.3705 13.8647 35.9515 13.9224 36.7256 13.9482V14.7031C36.3386 14.6773 35.8226 14.6641 35.1777 14.6641C34.5326 14.6512 33.8287 14.6455 33.0674 14.6455C32.2677 14.6455 31.5454 14.6512 30.9004 14.6641C30.2553 14.6641 29.7453 14.6773 29.3711 14.7031V13.9482C30.1581 13.9224 30.7391 13.8647 31.1133 13.7744C31.5001 13.6841 31.752 13.5098 31.8682 13.252C31.9972 12.9939 32.0615 12.6126 32.0615 12.1094V9.78418L28.6221 4.03613H30.8652L33.6025 8.63086ZM52.4092 12.0518C52.4092 12.5419 52.4669 12.9224 52.583 13.1934C52.712 13.4514 52.9448 13.6388 53.2803 13.7549C53.6286 13.858 54.138 13.9224 54.8086 13.9482V14.7031C54.5506 14.6773 54.1765 14.6641 53.6865 14.6641C53.2092 14.6512 52.6801 14.6455 52.0996 14.6455C51.5062 14.6455 50.9705 14.6512 50.4932 14.6641C50.0157 14.6641 49.6411 14.6773 49.3701 14.7031V13.9482C49.9895 13.9224 50.4606 13.8581 50.7832 13.7549C51.1187 13.6388 51.3448 13.4514 51.4609 13.1934C51.577 12.9224 51.6347 12.5418 51.6348 12.0518V4.03613H52.4092V12.0518ZM64.5635 12.2842C64.5635 12.7485 64.6156 13.0969 64.7188 13.3291C64.8349 13.5484 65.0545 13.7027 65.377 13.793C65.6995 13.8704 66.1897 13.9224 66.8477 13.9482V14.7031C66.4993 14.6773 66.0478 14.6641 65.4932 14.6641C64.9383 14.6512 64.3186 14.6455 63.6348 14.6455C62.9639 14.6455 62.3639 14.6512 61.835 14.6641C61.3188 14.6641 60.912 14.6773 60.6152 14.7031V13.9482C61.1958 13.9224 61.6282 13.8647 61.9121 13.7744C62.196 13.6841 62.3833 13.5289 62.4736 13.3096C62.5639 13.0774 62.6093 12.7356 62.6094 12.2842V4.03613H64.5635V12.2842ZM80.5898 12.0518C80.5899 12.529 80.6486 12.9029 80.7646 13.1738C80.8807 13.4318 81.1061 13.6192 81.4414 13.7354C81.7898 13.8515 82.3064 13.9224 82.9902 13.9482V14.7031C82.7322 14.6773 82.3575 14.6641 81.8672 14.6641C81.377 14.6512 80.8478 14.6455 80.2803 14.6455C79.6868 14.6455 79.1512 14.6512 78.6738 14.6641C78.1967 14.6641 77.8227 14.6773 77.5518 14.7031V13.9482C78.1837 13.9224 78.6609 13.8514 78.9834 13.7354C79.3189 13.6192 79.5384 13.4319 79.6416 13.1738C79.7577 12.9029 79.8164 12.529 79.8164 12.0518V4.03613H80.5898V12.0518ZM104.418 13.8906H107.166C107.889 13.8906 108.502 13.8386 109.005 13.7354C109.508 13.6192 109.934 13.4195 110.282 13.1357C110.631 12.8519 110.928 12.4583 111.173 11.9551C111.431 11.4519 111.676 10.7934 111.908 9.98047H112.682C112.578 10.7934 112.502 11.5938 112.45 12.3809C112.399 13.155 112.372 13.929 112.372 14.7031C111.856 14.6773 111.295 14.6641 110.688 14.6641C110.095 14.6512 109.495 14.6455 108.889 14.6455H107.224C106.411 14.6455 105.553 14.6512 104.649 14.6641C103.759 14.6641 102.921 14.6773 102.134 14.7031V13.9482L108.757 4.03613H111.003L104.418 13.8906ZM103.499 4.0625C103.376 4.4593 103.256 4.92872 103.14 5.4707H102.366C102.448 4.98738 102.513 4.50906 102.563 4.03613H103.508L103.499 4.0625ZM27.7324 2.62988C27.7444 2.64475 27.7556 2.66046 27.7676 2.67578C27.713 2.60603 27.6593 2.54037 27.6045 2.48047L27.7324 2.62988ZM89.7559 2.29102C89.7652 2.2798 89.7734 2.26765 89.7832 2.25684L89.8613 2.18066C89.8226 2.21479 89.7881 2.25207 89.7559 2.29102ZM65.0576 2.0293L65.1543 1.98242C65.1632 1.97859 65.1725 1.97536 65.1816 1.97168C65.1379 1.98926 65.0963 2.0079 65.0576 2.0293ZM7.23242 1.45312H1V1C1.32258 1.0129 1.76159 1.02616 2.31641 1.03906C2.88407 1.05196 3.52951 1.05762 4.25195 1.05762C4.89681 1.05761 5.47723 1.05196 5.99316 1.03906C6.50929 1.02616 6.92274 1.0129 7.23242 1V1.45312ZM16.1162 1.45312H9.88379V1C10.1934 1.0129 10.6062 1.02616 11.1221 1.03906C11.6381 1.05196 12.2126 1.05761 12.8447 1.05762C13.5801 1.05762 14.2255 1.05196 14.7803 1.03906C15.348 1.02616 15.7936 1.0129 16.1162 1V1.45312ZM32.042 1.45312H25.5967V1C26.0483 1.0129 26.5194 1.02616 27.0098 1.03906C27.5001 1.05196 27.9968 1.05762 28.5 1.05762C29.3 1.05762 29.9906 1.05197 30.5713 1.03906C31.1518 1.02616 31.6421 1.0129 32.042 1V1.45312ZM39.8223 1.45312H34.3643V1C34.661 1.0129 35.0745 1.02616 35.6035 1.03906C36.1325 1.05196 36.7647 1.05762 37.5 1.05762C37.8742 1.05762 38.2356 1.05197 38.584 1.03906C38.9452 1.02616 39.3579 1.0129 39.8223 1V1.45312ZM54.5098 1.45312H49.3701V1C49.654 1.0129 50.0353 1.02616 50.5127 1.03906C50.99 1.05196 51.5258 1.05762 52.1191 1.05762C52.5706 1.05761 52.99 1.05196 53.377 1.03906C53.7769 1.02616 54.0996 1.0129 54.3447 1L54.5098 1.45312ZM66.8477 1.45312H61.6299L61.7764 1C62.2022 1.02581 62.5768 1.04471 62.8994 1.05762H63.9053C64.4988 1.05762 65.0608 1.05197 65.5898 1.03906C66.1188 1.02616 66.538 1.0129 66.8477 1V1.45312ZM82.5908 1.45312H77.5518V1C77.8356 1.0129 78.2161 1.02616 78.6934 1.03906C79.1708 1.05196 79.7063 1.05762 80.2998 1.05762C80.7125 1.05762 81.0931 1.05195 81.4414 1.03906C81.7896 1.02617 82.0803 1.0129 82.3125 1L82.5908 1.45312ZM91.7197 1.45312H86.2803V1C86.5512 1.0129 86.9259 1.02616 87.4033 1.03906C87.8936 1.05196 88.4226 1.05762 88.9902 1.05762C89.5838 1.05762 90.1193 1.05197 90.5967 1.03906C91.0741 1.02616 91.4488 1.0129 91.7197 1V1.45312ZM112.527 1.45312H102.729C102.731 1.30234 102.733 1.15131 102.733 1C103.211 1.0129 103.727 1.02616 104.282 1.03906C104.85 1.05196 105.411 1.05762 105.966 1.05762H110.03C110.946 1.04471 111.779 1.02581 112.527 1V1.45312Z" fill="#00FFFB" style="mix-blend-mode:multiply"/>
</g>
<defs>
<filter id="filter0_f_272_765" x="0" y="0" width="117.082" height="15.8389" filterUnits="userSpaceOnUse" color-interpolation-filters="sRGB">
<feFlood flood-opacity="0" result="BackgroundImageFix"/>
<feBlend mode="normal" in="SourceGraphic" in2="BackgroundImageFix" result="shape"/>
<feGaussianBlur stdDeviation="0.5" result="effect1_foregroundBlur_272_765"/>
</filter>
</defs>
</svg>
