<?xml version="1.0" encoding="UTF-8"?>
<svg id="svg" xmlns="http://www.w3.org/2000/svg" version="1.1" viewBox="0 0 1024 1024">
  <!-- Generator: Adobe Illustrator 30.2.1, SVG Export Plug-In . SVG Version: 2.1.1 Build 1)  -->
  <defs>
    <style>
      .st0 {
        fill: #fff;
        fill-rule: evenodd;
      }
    </style>
  </defs>
  <path class="st0" d="M481.18,77.75c-.27,5.68.33,8.79,3.75,19.55,4.82,15.18,5.23,22.18,1.9,33.09-3.09,10.12-3.04,19.67.12,26.11,6.17,12.58,21.82,23.45,33.81,23.49,4.79.02,6.76-3.9,8.24-16.34,1.95-16.38,6.41-24,20.79-35.52,11.08-8.87,15.71-13.68,17.65-18.35,1.98-4.74,1.99-14.78.04-19.47-3.31-7.92,1.06-3.18,5.87,6.37,6.6,13.1,3.69,26.67-8.92,41.61-1.76,2.09-4.65,6.52-6.43,9.84-2.9,5.44-3.18,6.71-2.82,12.7.59,9.75,4.68,17.37,12.57,23.41,6.89,5.28,9.33,3.42,15.09-11.54,1.65-4.28,4.11-9.68,5.47-11.99,3.07-5.24,11.66-13.27,23.08-21.57,16.24-11.81,17.98-17.04,12.04-36.05-1.31-4.18,1.16-1.51,5.22,5.67,4.82,8.5,6.3,13.27,6.32,20.34.02,7.18-2.82,12.63-12.11,23.32-3.83,4.4-8.35,10.83-10.06,14.3-2.89,5.87-3.06,6.82-2.48,13.65.4,4.73,1.43,8.86,2.89,11.62,3.12,5.86,12.02,13.64,16.6,14.5,4.26.8,5.09,0,14.54-13.63,5.01-7.24,7.27-9.44,15.5-15.12,21.59-14.9,22.5-16.22,23.79-34.73.77-11.08,1.69-13.69,7.34-20.78,4.62-5.8,7.29-7.07,4.17-1.99-4.02,6.57-4.5,11.03-2.62,24.45,2.14,15.31,1.62,23.63-1.83,29.51-1.39,2.36-6.3,7.91-10.91,12.33-9.51,9.12-11.86,13.22-12.55,21.88-1.19,14.89,9.11,30.04,19.14,28.16,2.3-.43,5.47-2.95,11.24-8.94,9.06-9.4,16.2-14.55,27.87-20.08,4.4-2.09,10.27-4.87,13.04-6.19,7.86-3.74,11.95-7.73,17.56-17.15,4.73-7.93,11.34-16.21,12.95-16.21.35,0-.4,2.14-1.69,4.75-1.33,2.71-3.02,9.25-3.95,15.25-2.55,16.55-5.84,21.88-20.17,32.65-10.73,8.06-15.03,12.79-18.53,20.35-3.84,8.31-4.23,17.99-1.01,25.15,5.2,11.54,10.97,11.87,24.8,1.38,6.98-5.29,15.97-8.57,33.31-12.13,23.91-4.91,26.73-6.02,36.74-14.39,6.5-5.44,11.62-8.05,18.95-9.64,5.9-1.28,15.07-.88,16.04.7.27.44-1.65,1.07-4.27,1.39-2.62.32-7.24,1.82-10.27,3.31-4.96,2.45-6.1,3.69-11.57,12.47-3.34,5.36-7.17,10.92-8.5,12.35-3.34,3.58-10.75,7.18-20.69,10.06-16.96,4.92-26.79,11.59-31.88,21.62-3,5.92-4.12,15.88-2.38,21.15,1.68,5.08,6.65,10.57,9.57,10.57,1.28,0,5.71-2.42,9.84-5.38,14.61-10.48,24.65-13.39,40.18-11.66,8.23.92,22.16,4.87,24.94,7.07.55.44,3.8,1.73,7.22,2.88,11.17,3.76,19.76,2.49,29.65-4.35,3.23-2.23,6.67-4.53,7.64-5.1.98-.57,2.61-1.68,3.63-2.46s.46.14-1.25,2.04-4.79,6.05-6.86,9.22c-9.24,14.2-19.72,17.22-41.77,12.05-10.07-2.36-20.85-1.48-27.74,2.25-6.91,3.75-14.23,10.88-16.96,16.51-4.93,10.19-6.67,25.91-3.54,31.97,2.05,3.96,5.34,3.87,14.65-.42,14.78-6.81,16.46-7.42,23.51-8.66,9.44-1.66,18.29-.25,35.37,5.63,18.58,6.39,23.4,6.06,36.45-2.53,10.89-7.17,11.97-7.56,21.11-7.56s13.58,1.88,6.17,2.72c-6.61.75-11.33,3.47-16.54,9.55-9.49,11.08-13.82,14.9-18.75,16.59-6.84,2.33-17.19,2.03-29.48-.85-12.8-3-16.88-3.08-24.56-.49-15.75,5.32-27.47,21.95-27.43,38.93.02,8.45.75,11.06,3.09,11.06,1.03,0,5.81-1.64,10.63-3.63,7-2.9,10.48-3.73,17.31-4.13,14.95-.86,24.06,2.16,42.59,14.13,18.25,11.79,15.94,11.32,43.67,8.97,7.03-.6,14.22,1.17,16.64,4.08.9,1.08.24,1.15-3.67.39-6.49-1.26-10.99-.42-22.5,4.22-13.91,5.61-22.13,5.3-37.1-1.4-16.71-7.48-29.98-8.99-39.66-4.51-12.59,5.82-22.06,18.45-22.82,30.43-.56,8.8.32,9.27,16.13,8.66,20.41-.79,28.16,2.57,44.69,19.38,13.71,13.93,15.12,14.56,34.56,15.45,11.75.54,16.05,1.13,19.55,2.68,4.3,1.9,12.37,8.12,11.57,8.92-.21.21-2.36-.72-4.78-2.06-2.42-1.34-6.01-2.73-7.97-3.09-4.01-.73-15.73,1.1-17.75,2.77-.72.6-6.13,1.29-12.01,1.53-10.19.42-11,.3-17.18-2.52-3.57-1.63-8.52-4.49-10.99-6.37-12.76-9.66-19.79-12.48-29.06-11.64-6.98.63-12.54,3.57-19.44,10.28-2.61,2.54-5.08,4.24-5.5,3.78-.42-.46-1.87-2.86-3.23-5.33-1.36-2.47-3.98-6.95-5.83-9.94l-3.35-5.44.26-12.56c.53-25.55-2.89-57.35-8.49-78.97-2.87-11.08-9.86-32.89-12.37-38.59-.97-2.2-3.44-8.05-5.5-13-4.32-10.38-13.95-29.06-19.86-38.5-26.22-41.89-56.17-72.69-96.63-99.36-23.86-15.73-52.8-29.49-78.88-37.53-14.2-4.37-37.7-9.51-53.62-11.72-15.5-2.15-48.28-2.92-62.68-1.46-63.66,6.42-114.34,25.86-163.47,62.7-44.02,33.01-82.11,83.25-102.67,135.41-13.01,33.01-19.1,59.08-22.29,95.46-2.15,24.53-.99,49.25,3.6,76.55,2.41,14.33,7.1,32.48,10.46,40.45.69,1.65,2.98,7.91,5.08,13.92,4.12,11.78,18.14,40.23,26.35,53.46,7.32,11.8,21.18,31.09,29.45,41,16.33,19.55,40.69,41.68,60.11,54.6,4.71,3.14,8.84,6.14,9.17,6.68.38.61-2.51.89-7.75.74l-8.35-.23-6,7.04c-9.39,11.01-16.26,16.22-30,22.73-4.4,2.08-10.27,4.87-13.04,6.19-7.86,3.74-11.95,7.73-17.56,17.15-4.73,7.93-11.34,16.22-12.95,16.22-.35,0,.4-2.14,1.69-4.75,1.33-2.71,3.02-9.25,3.95-15.25,2.55-16.55,5.84-21.88,20.17-32.65,10.73-8.06,15.03-12.79,18.53-20.35,4.21-9.11,4.34-18.17.36-26.28-3.35-6.84-5.22-8.01-12.57-7.84-10.46.24-17.4,2.15-31.08,8.55-7.43,3.48-18.23,8.45-24,11.05-18.33,8.26-20.38,9.36-25.95,13.96-6.12,5.05-8.01,5.22-3.34.3,1.69-1.78,3.4-4.36,3.81-5.73,2.68-9.06,9.42-16.93,20.98-24.52,3.3-2.17,7.12-4.96,8.49-6.21,1.37-1.25,2.81-2.27,3.2-2.27,1.39,0,7.24-9.53,10.12-16.47,3.89-9.4,4.9-23.43,2.15-29.81-2.31-5.35-6.26-9.72-8.78-9.72-1.08,0-6.36,3.34-11.75,7.41-5.39,4.08-10.84,7.74-12.11,8.14s-2.54,1.04-2.82,1.43c-.97,1.37-16.62,4.93-26.24,5.98-14.14,1.53-21.28,4.18-29.39,10.91-7.15,5.93-7.27,5.7-1.29-2.36,4.53-6.11,12.19-13.46,16.97-16.3,1.95-1.16,8.05-3.64,13.54-5.51,5.5-1.87,11.81-4.55,14.03-5.95,5.89-3.72,11.92-11.04,16.16-19.61,3.19-6.45,3.76-8.67,4.06-15.67.29-6.74,0-8.86-1.74-12.24-1.14-2.24-2.57-4.38-3.16-4.75s-6.11,1.84-12.26,4.91c-17.15,8.55-22.02,8.92-47.18,3.56-17.9-3.81-28.75-.58-35.43,10.56-1.04,1.73-1.13,1.5-.7-1.73.65-4.83,6.95-14.29,11.54-17.32,5.48-3.61,11.7-5.45,18.49-5.45,3.38,0,9.96-.48,14.62-1.06,21.18-2.64,35.09-16.09,36.66-35.44.66-8.14-.78-10.06-7.35-9.77-31.15,1.38-33.51,1.02-52.34-7.99-5.78-2.76-12.53-5.91-15-7.01-8.41-3.71-19.68-2.13-29.27,4.1-2.07,1.35-4,2.22-4.28,1.95s2.09-3.16,5.27-6.4c11.44-11.68,20.15-13.48,42.95-8.87,13.54,2.74,13.6,2.74,22.05,1.08,16.86-3.31,27.96-14.38,29.73-29.65.94-8.14.03-8.69-16.52-9.91-20.05-1.48-22.11-2.26-39.98-15.1-6.3-4.53-14.3-9.57-17.78-11.21-5.45-2.57-7.06-2.9-11.63-2.36-2.92.34-8.49,1.98-12.37,3.63-5.27,2.24-8.61,3.01-13.17,3.01-6.91,0-7.27-1.43-.62-2.43,2.49-.37,7.17-2.39,10.76-4.65,10.28-6.46,16.65-9.02,23.8-9.58,7.18-.56,11.34.52,27.29,7.14,4.81,1.99,11.22,4.03,14.24,4.52,6.56,1.07,16.16-.26,21.39-2.95,10.13-5.23,17.55-15.83,16.94-24.23l-.31-4.24-11.28-3.15c-20.69-5.78-25.93-9.3-46.22-31-11.26-12.05-20.03-15.31-32.5-12.08l-6,1.55,2.5-2.09c1.38-1.15,4.91-3.21,7.86-4.57,4.54-2.1,6.39-2.4,12-1.98,7.78.58,13.9,3.19,27.64,11.76,5.29,3.3,9.89,5.99,10.22,5.99s1.32.62,2.19,1.38,4.63,2.4,8.35,3.64c9.39,3.13,19.36,2.41,28.43-2.05,6.74-3.32,10.25-7.12,13.75-14.87,3.32-7.35,1.52-9.58-12.48-15.49-11.82-4.99-23.45-16.01-34.63-32.81-14.55-21.86-21.08-25.07-39.34-19.32-2.46.77-2.47.76-.66-1.27,1.01-1.13,4.39-3.33,7.5-4.88,5.05-2.52,6.69-2.82,15.16-2.78,13.13.06,17.28,2.36,29.65,16.46,12.26,13.97,18.11,17.38,29.79,17.39,6.45,0,9.06-.48,13.06-2.39,10.06-4.82,22.7-21.09,21.15-27.24-.36-1.44-2.79-4.34-5.39-6.44-15.76-12.73-25.3-25.86-28.58-39.33-4.34-17.8-11.4-24.29-28.96-26.62-4.4-.58-4.82-.83-3.29-1.94.96-.7,4.89-1.8,8.73-2.45,16.68-2.81,27.87,3.02,39.33,20.53,5.07,7.74,12.08,14.73,17.62,17.57,5.92,3.03,16.64,3.73,24.1,1.56,10.66-3.1,22.18-13.8,23.39-21.74.47-3.09-.11-4.08-6.54-11.17-7.68-8.47-9.42-11.39-13.55-22.72-2.32-6.37-2.84-9.75-3.44-22.5-.48-10.19-1.21-16.17-2.3-18.65-1.64-3.76-10.05-11.19-14.03-12.39-3.86-1.17-14.15-6.17-16.24-7.9-1.33-1.1-1.3-1.46.09-1.09,1.15.31,6.55,1.42,12,2.46,22.62,4.33,32.55,11.67,37.92,28.05,7.04,21.47,18.98,32.66,35.99,33.75,13.15.84,23.19-3.22,25.54-10.33,1.66-5.02.82-7.86-5.3-18-10.63-17.61-11.09-19.44-11.2-44.4-.07-16.18-.33-19.09-2.09-23.24-2.91-6.85-8.58-13.14-14.66-16.24l-5.29-2.7,6.08.39c10.87.7,22.52,8.2,27.32,17.6,1.14,2.23,3.69,10.72,5.67,18.87,3.41,14.02,7.4,24.29,11.22,28.86.94,1.12,4,3.85,6.81,6.06,7.11,5.61,15.73,7.85,27.23,7.1,10.53-.69,15.15-1.98,19.13-5.33,2.79-2.35,3.03-3.06,3.03-8.9,0-3.49-.71-9.41-1.58-13.16-2.81-12.07-2.29-20.3,2.11-33.68,3.67-11.15,3.81-12.03,2.72-17.21-1.03-4.89-4-10.32-12.43-22.67-1.03-1.51-1.66-2.75-1.41-2.75,1.51,0,17.53,10.48,20.89,13.66,6.7,6.35,8.68,11.97,8.69,24.69.02,17.57,3.64,27.45,13.67,37.3,6.36,6.25,14.58,9.77,21.15,9.05,6.82-.75,7.38-2.12,6.85-16.71-.7-19.19.44-23.86,9.13-37.35,2.43-3.77,5.55-9.39,6.93-12.5,2.35-5.28,2.46-6.24,1.69-14.65-1.3-14.22-1.05-22.56.82-26.75.92-2.06,2.03-3.75,2.47-3.75s.66,3.04.48,6.75M531,204.49c17.97,2.11,27.01,3.42,31,4.49,1.92.52,9.35,2.37,16.5,4.13,14.3,3.5,25.55,7.35,41.68,14.24,78.26,33.43,139.94,101.06,165.66,181.66,4.59,14.39,8.87,31.41,10.56,42,2.9,18.2,3.49,23.58,4.09,37l.6,13.5-2.8-3.46c-30.36-37.59-67.43-61.85-104.58-68.44-8.53-1.51-14.88-2.4-14.46-2.03.13.12,4.64,2.5,10.02,5.28,12.58,6.52,23.81,14.31,28.79,19.96,3.27,3.71,3.92,5.17,3.86,8.58-.04,2.26-.83,5.32-1.75,6.8s-7.53,6.83-14.68,11.89c-19.53,13.81-33.33,28.59-39.49,42.27-4.31,9.58-6.25,18.96-6.67,32.3-.34,10.78-.71,12.88-3.26,18.5-3.74,8.26-4.61,11.65-7.12,27.84-4.82,31.14-6.11,47.17-3.9,48.54,1.54.95,13.16-7.12,22.28-15.49,4.32-3.96,8.06-6.98,8.33-6.71.66.66-11.3,24.5-16.89,33.66-2.52,4.12-9.1,14.03-14.63,22-9.57,13.81-12.68,18.94-22.8,37.65-5.31,9.81-6.66,18.28-3.97,24.74,1.53,3.65,1.5,4.41-.38,12.5-1.1,4.74-3.21,11.49-4.67,15-2.3,5.5-2.51,6.8-1.52,9.43.63,1.68,1.01,3.19.83,3.37-.17.18-2.99-1.02-6.26-2.65-13.9-6.94-34.14-8.21-59.89-3.74-36.64,6.35-52.97,6.21-89.5-.77-4.67-.89-13.45-1.64-19.5-1.65l-11-.03,3.98-3.17c2.19-1.74,6.51-5.53,9.6-8.43l5.63-5.26,5.4,2.44c2.97,1.34,10.35,3.48,16.4,4.76,9.46,2,13.79,2.32,31,2.28,19.17-.04,20.75-.2,38-3.8,22.1-4.61,37.34-5.64,48.46-3.27,4.12.88,7.84,1.21,8.31.74,2.13-2.13,6.73-19.16,8.71-32.24,1.2-7.91,3.68-20.23,5.52-27.38,3.47-13.48,14.09-46.66,16.84-52.6.87-1.87,3.13-7.22,5.03-11.9,1.9-4.67,4.63-11.33,6.07-14.79,5.68-13.67,5.99-20.19,1.72-36.42-6.15-23.36-5.19-47.18,2.9-71.8,3.15-9.58,7.98-19.6,15.54-32.26,3.7-6.18,7.38-12.37,8.18-13.74s-4.78,3.87-12.41,11.66c-17.11,17.46-38.44,34.39-51.37,40.78l-3.5,1.73,4-3.84c2.2-2.11,9.4-8.52,16-14.24s21.14-19.59,32.3-30.83c15.96-16.06,20.06-20.71,19.19-21.77-2.37-2.86-18.3-9.73-29.13-12.57-6.25-1.64-14.26-4.33-17.79-5.98-6.04-2.82-6.31-3.09-4.44-4.4,3.51-2.46,14.79-5.58,22.95-6.36l7.92-.76-8-1.76c-17.08-3.76-32.41-9.58-45.59-17.3-10.39-6.09-23.77-17.08-23.88-19.62-.02-.41,1.03-.75,2.33-.75,6.28,0,10.43-7.51,8.62-15.58-1.99-8.9-6.41-13.19-17.31-16.81-1.43-.48-1.69-1.24-1.19-3.51.37-1.67.19-3.18-.42-3.56-.58-.36-1.06-2.42-1.06-4.57s-.97-6.89-2.16-10.52c-1.85-5.62-3.01-7.33-7.88-11.57-4.36-3.79-6.01-6.02-6.95-9.38-1.79-6.39-7.1-12.02-15.21-16.1-3.84-1.93-6.8-3.15-6.58-2.7,7.27,14.96,9.98,29.18,9.63,50.43l-.26,15.62,5.97,5.9c3.33,3.3,7.28,8.52,8.94,11.83,4.09,8.16,4.8,21.99,1.67,32.22-3.79,12.35-14.05,24.86-23.72,28.9-9.53,3.98-22.79,3.44-32.25-1.32-9.52-4.79-18.73-16.58-22.1-28.27-.71-2.48-1.76-5.77-2.33-7.33-.57-1.55-1.05-6.73-1.06-11.5-.02-9.82,1.38-13.96,7.04-20.87,6.17-7.53,21.62-15.3,30.44-15.3h3.84l-.02-12.25c-.02-15.75-1.71-23.38-9.29-41.75-3.62-8.79-11.85-20.27-18.5-25.82-9.91-8.26-22.08-12.23-31.39-10.24-5,1.07-15.26,5.94-14.38,6.82.24.24,3.51-.1,7.26-.76s8.61-1.03,10.81-.83l4,.37-2.75,1.39c-1.51.76-2.75,1.7-2.75,2.07s5.29,2.41,11.75,4.52c14.08,4.59,15.28,5.31,20.6,12.23,2.28,2.97,5.38,7,6.9,8.97,3.2,4.15,3.84,7.21,1,4.77-.96-.83-3.66-3.13-6-5.12s-4.25-4.08-4.25-4.65c0-1.95-5.1-7.73-8.28-9.37-1.74-.9-5.45-1.67-8.24-1.71-13.37-.19-25.35,15.9-18.41,24.72,2.05,2.61,2.21,2.64,15.2,2.64,9.83,0,12.84.29,11.99,1.14-.63.63-3.43,1.36-6.22,1.63-2.79.27-5.31.86-5.59,1.31-.81,1.31,6.2,2.22,12.9,1.68,6.64-.54,15.08-4.71,16.2-8.01,1.14-3.38,3.46-1.98,3.46,2.08,0,3.33-.49,4.15-3.75,6.25-4.99,3.22-5.45,6.65-1.3,9.72,3.77,2.79,3.85,5.08.3,8.32-4.46,4.07-8.11,5.98-16.16,8.48-8.33,2.59-10.53,2.91-9.59,1.39.34-.55,1.37-1,2.29-1,2.07,0,11.21-6.13,11.19-7.5-.04-1.95-7.89-6.53-12.22-7.12-3.36-.46-5.37-.11-8.49,1.49-3.83,1.95-8.26,6.73-8.26,8.9,0,.82,8.37,5,13,6.49,1.07.34.69.86-1.3,1.8-2.41,1.13-3.2,1.08-5.65-.37-4.27-2.52-8.08-2.1-12.27,1.35-4.23,3.49-14.23,8.32-16,7.73-.66-.22,1.54-2.26,4.89-4.53,6.4-4.35,7.87-6.29,6.11-8.05-1.63-1.63.75-6.38,4.16-8.33,3.83-2.19,6.73-6.58,5.29-8.02-1.12-1.12-3.54-.66-23.58,4.51-10.75,2.77-12.36,3.8-16.18,10.31-2.34,3.98-2.89,4.35-6.54,4.35-5.51,0-9.54,1.91-15.66,7.44-4.27,3.86-5.59,5.86-7.16,10.89l-1.92,6.17-.09-5.19c-.09-5-1.27-7.44-2.58-5.32-.35.56-1.91,1.02-3.49,1.02-1.92,0-3.47.85-4.73,2.57-1.25,1.71-2.93,1.97-5.04.76-2.59-1.49-3.4-1.58-4.46-.52-2.12,2.12-1.49,10.76,1.03,14.17,1.2,1.62,2.18,3.22,2.18,3.55,0,1.04-4.3-.7-8.33-3.37-3.05-2.02-5.23-2.59-10.36-2.7l-6.5-.15.61,3.05c.34,1.68,1.46,3.97,2.49,5.1,1.04,1.14,2.19,4.4,2.58,7.34.87,6.56,3.99,10.5,9.9,12.52,5.39,1.84,9.45,1.08,13.48-2.53,1.67-1.5,3.23-2.4,3.46-2,1,1.72,3.65,12.46,5.23,21.13,1.97,10.88,4.15,13.96,13.44,18.96,7.12,3.84,8.6,7.69,11.98,31.13,2.75,19.08,2.58,18.48,5.54,19.83,3.74,1.7,5.62,1.47,10.97-1.38,6.8-3.62,8.79-3.07,9.91,2.76,1.23,6.37-.04,7.79-6.97,7.79-2.93,0-5.6.45-5.94,1-.9,1.45,4.52,1.25,17.08-.64,16.58-2.5,18.68-2.09,22.78,4.44,2.68,4.27,6.83,16.44,5.45,15.98-.51-.17-1.98-2.89-3.26-6.05-2.83-6.96-5.14-10.62-7.21-11.42-.85-.33-3.64.44-6.19,1.71-4.19,2.08-6.26,2.34-21.14,2.61-9.08.16-16.84.31-17.25.34-1,.06-.96,2.79.04,3.41.43.27,5.5,1.66,11.25,3.1,25.28,6.31,25.59,6.45,26.62,11.56.6,2.97.47,3.23-1.25,2.53-2.14-.87-11.6-3.19-18.41-4.51-5.91-1.15-18.76-4.58-22.32-5.96-5.6-2.17-9.24-.81-10.98,4.1-.49,1.39.71,2.09,6.6,3.86,23.2,6.97,34.7,11.2,34.7,12.75,0,.48-1.75,1.45-3.89,2.16-3.17,1.04-4.89,1.05-9.25,0-2.95-.7-6.03-1.64-6.86-2.07-4.18-2.21-14.58-4.9-18.92-4.9s-5.25.41-7.51,3.1c-2.35,2.79-2.56,3.7-2.11,9.25.27,3.38.76,10.2,1.08,15.15.36,5.54,1.52,11.72,3.02,16.08,2.84,8.26,2.92,9.23.97,11.38-.91,1.01-1.83,5.55-2.46,12.08-1.46,15.33-6.37,32.95-19.64,70.47-2.53,7.15-6.85,19.75-9.6,28s-5.61,16.35-6.36,18c-1.33,2.93-1.36,2.86-1.36-3,0-3.3.37-8.25.83-11s.66-5.18.45-5.4c-.21-.22-1.54,2.23-2.97,5.45-3.44,7.78-7.24,24.94-7.85,35.46-.27,4.67-.7,8.49-.96,8.49s-5.34-3.89-11.3-8.65c-51.12-40.81-87.38-96.09-103.86-158.35-2.38-9-4.2-18.07-7-35-2.17-13.08-3.01-47.22-1.56-63.5,2.61-29.3,9.16-58.43,18.34-81.5,2.19-5.5,4.7-11.8,5.58-14s4.37-9.4,7.76-16c15.74-30.64,33.31-54.46,57.62-78.1,33.98-33.05,69.79-54.76,115.29-69.89,35.73-11.89,83.46-17.13,118.5-13.02M444.86,276.02c-8.67,1.46-15.85,6.42-17.16,11.85-.54,2.23-.36,2.34,2.95,1.8,3.97-.64,10.66-4.75,17.35-10.65,4.68-4.13,4.51-4.3-3.14-3M420.01,280.6c-4.12,1.4-8.06,3.02-8.75,3.6-1.99,1.65-1.48,3.74,1.2,4.96,2.84,1.3,3.94.71,12.37-6.56,2.93-2.53,4.73-4.59,4-4.57-.73.01-4.7,1.17-8.82,2.58M391.94,293.95c-7.49,2.27-13.02,7.36-16.01,14.73-1.2,2.97-1.89,5.7-1.52,6.07.37.37,3.37-.81,6.67-2.63,5.17-2.85,6.72-3.24,11.21-2.85,2.87.25,8.36,1.69,12.21,3.2,13.85,5.44,30.5,1.94,30.5-6.41,0-2.24-.62-2.8-4.25-3.79-2.34-.64-7.85-1.34-12.25-1.55-7.17-.35-8.59-.77-13.7-4.06-5.71-3.67-8.07-4.17-12.86-2.72M362.71,318.49c-6.17,6-7.62,15.94-1.79,12.34,2.14-1.32,6.68-9.58,7.27-13.23.52-3.18-1.65-2.83-5.48.89M385.5,317.97c-1.1.46-3.78,2.69-5.96,4.95s-7.98,6.46-12.88,9.34c-10.28,6.04-12.01,8.44-8.98,12.52,2.42,3.26,8.94,5.79,12.59,4.87,2.94-.74,17.21-10.13,25.99-17.11,4.5-3.58,5.75-5.16,5.73-7.3-.02-3.23-.65-4.28-3.96-6.54-2.6-1.78-9.12-2.16-12.53-.73M345.3,337.31c-1.76,2.01-3.49,5.2-3.85,7.09-.83,4.42,1.29,8.99,4.36,9.43,2.91.41,5.59-1.64,4.24-3.26-.53-.64-1.1-4.71-1.26-9.04l-.3-7.88-3.2,3.65M335.18,356.22c-3.15,3.15.66,13.78,4.94,13.78s6.65-6.3,3.02-7.45c-1.02-.32-2.96-2.15-4.32-4.05-1.89-2.66-2.73-3.19-3.64-2.28M486.34,377.25c-2.47,4.7-2.62,14.63-.31,21.33,5.74,16.68,15.6,25.56,28.36,25.56,4.3,0,10.63-1.41,10.61-2.37,0-.15-1.92-.33-4.25-.4-6.82-.2-12.05-2.09-16.59-5.97-9.11-7.79-16.61-24.5-15.98-35.57.18-3.21.23-5.83.11-5.83s-.99,1.46-1.93,3.25M509.39,502.85c3.36,2.12,9.88,5.68,14.5,7.92l8.39,4.07-4.8,3.33c-11.72,8.12-13.17,10.47-5.9,9.47,6.93-.95,5.24,1.02-6.06,7.07-18.38,9.84-22.87,14.77-33.7,37.04-4.77,9.81-7.46,16.78-8.63,22.35l-1.69,8.1-5,2.9c-7.14,4.14-7.05,4.06-9.38,7.9-3.31,5.48-2.9,6.97,1.62,5.92,8.87-2.06,29.69.46,30.95,3.74.89,2.32-2.36,5.04-20.8,17.38-9.98,6.68-19.2,13.65-21.32,16.12-4.27,4.99-8.68,13.78-11.08,22.09-.93,3.24-2.23,5.75-2.97,5.75-2.2,0-2.29,3.09-.39,12.5,2.06,10.2,3.55,32.91,2,30.5-.53-.83-1.46-6-2.07-11.5-.61-5.5-2.01-15.17-3.12-21.5-2.67-15.22-3.86-62.81-1.98-78.83,2.36-20.03,6.73-29.85,15.78-35.46,14.13-8.75,21.64-20.52,22.8-35.73.55-7.22,3.56-22.52,4.61-23.45.18-.16,2.18-1.22,4.44-2.36s8.29-5.92,13.39-10.62c6.49-5.98,10.03-8.55,11.78-8.55,1.38,0,5.25,1.73,8.61,3.85M866.28,589.75c1.07.96,5.54,6.78,9.92,12.93,9,12.61,12.5,15.47,21.79,17.84,8.31,2.11,17.25,6.86,21.03,11.18,4.07,4.63,3.74,6.19-.52,2.45-4.47-3.93-8.11-4.83-24.03-5.95-9.99-.71-13.99-1.41-17.18-3.04-4.59-2.34-16.95-10.78-17.79-12.15-.79-1.27-6.38-16.71-8.16-22.51-.84-2.75-1.94-5.43-2.44-5.95s-.91-1.94-.91-3.16c0-2.1.41-1.99,8.17,2.2,4.49,2.42,9.04,5.19,10.11,6.16M537.85,679.25c11.63,23.56,20.55,33.17,35.95,38.75,4.57,1.65,9.35,3.01,10.64,3.01,2.13,0,2.42.64,3.45,7.54.62,4.15,1.12,9.38,1.12,11.63v4.09l-4.25-.68c-21.51-3.46-42.1-3.77-75.25-1.14-11.55.92-27.03,1.53-34.41,1.37l-13.41-.3,17.25-17.5c17.54-17.79,30.71-32.91,43.88-50.35,4.02-5.33,7.69-9.46,8.15-9.17.46.28,3.56,6.03,6.88,12.77M876.04,677.46c1.79,8.92,2.25,9.96,5.67,12.87,6.7,5.71,10.93,10.1,13.63,14.15,3.63,5.43,3.34,7.05-.59,3.35-3.72-3.49-12.22-7.81-15.4-7.83-1.94,0-2.21-.72-2.82-7.26-.37-3.99-1.31-10.79-2.1-15.11-2.67-14.67-1.33-14.81,1.61-.18"/>
</svg>